<?xml version="1.0" encoding="UTF-8"?>
<svg xmlns="http://www.w3.org/2000/svg" version="1.1" viewBox="0 0 1024 1024">
  <defs>
    <style>
      .cls-1 {
        fill: #f0ca99;
      }

      .cls-1, .cls-2, .cls-3, .cls-4, .cls-5, .cls-6, .cls-7, .cls-8, .cls-9, .cls-10, .cls-11, .cls-12, .cls-13, .cls-14, .cls-15, .cls-16, .cls-17, .cls-18, .cls-19, .cls-20, .cls-21, .cls-22, .cls-23, .cls-24, .cls-25, .cls-26, .cls-27, .cls-28, .cls-29, .cls-30, .cls-31, .cls-32, .cls-33, .cls-34, .cls-35, .cls-36, .cls-37, .cls-38, .cls-39, .cls-40, .cls-41, .cls-42, .cls-43, .cls-44, .cls-45, .cls-46, .cls-47, .cls-48, .cls-49, .cls-50, .cls-51, .cls-52, .cls-53, .cls-54, .cls-55, .cls-56, .cls-57, .cls-58, .cls-59, .cls-60, .cls-61, .cls-62, .cls-63, .cls-64, .cls-65, .cls-66, .cls-67, .cls-68, .cls-69, .cls-70, .cls-71, .cls-72, .cls-73, .cls-74, .cls-75, .cls-76, .cls-77, .cls-78, .cls-79, .cls-80, .cls-81, .cls-82, .cls-83, .cls-84, .cls-85, .cls-86, .cls-87, .cls-88, .cls-89, .cls-90, .cls-91, .cls-92, .cls-93, .cls-94, .cls-95, .cls-96, .cls-97, .cls-98, .cls-99, .cls-100, .cls-101, .cls-102, .cls-103, .cls-104, .cls-105, .cls-106, .cls-107, .cls-108, .cls-109, .cls-110, .cls-111, .cls-112, .cls-113, .cls-114, .cls-115, .cls-116, .cls-117, .cls-118, .cls-119, .cls-120, .cls-121, .cls-122, .cls-123, .cls-124, .cls-125, .cls-126, .cls-127, .cls-128, .cls-129, .cls-130, .cls-131, .cls-132, .cls-133, .cls-134, .cls-135, .cls-136, .cls-137, .cls-138, .cls-139, .cls-140, .cls-141, .cls-142, .cls-143, .cls-144, .cls-145, .cls-146, .cls-147, .cls-148, .cls-149, .cls-150, .cls-151, .cls-152, .cls-153, .cls-154, .cls-155, .cls-156, .cls-157, .cls-158, .cls-159, .cls-160, .cls-161, .cls-162, .cls-163, .cls-164, .cls-165, .cls-166, .cls-167, .cls-168, .cls-169, .cls-170, .cls-171, .cls-172, .cls-173, .cls-174, .cls-175, .cls-176, .cls-177, .cls-178, .cls-179, .cls-180, .cls-181, .cls-182, .cls-183, .cls-184, .cls-185, .cls-186, .cls-187, .cls-188, .cls-189, .cls-190, .cls-191, .cls-192, .cls-193, .cls-194, .cls-195, .cls-196, .cls-197, .cls-198, .cls-199, .cls-200, .cls-201, .cls-202, .cls-203, .cls-204, .cls-205, .cls-206, .cls-207, .cls-208, .cls-209, .cls-210, .cls-211, .cls-212, .cls-213, .cls-214, .cls-215, .cls-216, .cls-217, .cls-218, .cls-219, .cls-220, .cls-221, .cls-222, .cls-223, .cls-224, .cls-225, .cls-226, .cls-227, .cls-228, .cls-229, .cls-230, .cls-231, .cls-232, .cls-233, .cls-234, .cls-235, .cls-236, .cls-237, .cls-238, .cls-239, .cls-240, .cls-241, .cls-242, .cls-243, .cls-244, .cls-245, .cls-246, .cls-247, .cls-248, .cls-249, .cls-250, .cls-251, .cls-252, .cls-253, .cls-254, .cls-255, .cls-256, .cls-257, .cls-258, .cls-259, .cls-260, .cls-261, .cls-262, .cls-263, .cls-264, .cls-265, .cls-266, .cls-267, .cls-268, .cls-269, .cls-270, .cls-271, .cls-272, .cls-273, .cls-274, .cls-275, .cls-276, .cls-277, .cls-278, .cls-279, .cls-280, .cls-281, .cls-282, .cls-283, .cls-284, .cls-285, .cls-286, .cls-287, .cls-288, .cls-289, .cls-290, .cls-291, .cls-292, .cls-293, .cls-294, .cls-295, .cls-296, .cls-297, .cls-298, .cls-299, .cls-300, .cls-301, .cls-302, .cls-303, .cls-304, .cls-305, .cls-306, .cls-307, .cls-308, .cls-309, .cls-310, .cls-311, .cls-312, .cls-313, .cls-314, .cls-315, .cls-316, .cls-317, .cls-318, .cls-319, .cls-320, .cls-321, .cls-322, .cls-323, .cls-324, .cls-325, .cls-326, .cls-327, .cls-328, .cls-329, .cls-330, .cls-331, .cls-332, .cls-333, .cls-334, .cls-335, .cls-336, .cls-337, .cls-338, .cls-339, .cls-340, .cls-341, .cls-342, .cls-343, .cls-344, .cls-345, .cls-346, .cls-347, .cls-348, .cls-349, .cls-350, .cls-351, .cls-352, .cls-353, .cls-354, .cls-355, .cls-356, .cls-357, .cls-358, .cls-359, .cls-360, .cls-361, .cls-362, .cls-363, .cls-364, .cls-365, .cls-366, .cls-367, .cls-368, .cls-369, .cls-370, .cls-371, .cls-372, .cls-373, .cls-374, .cls-375, .cls-376, .cls-377, .cls-378, .cls-379, .cls-380, .cls-381, .cls-382, .cls-383, .cls-384, .cls-385, .cls-386, .cls-387, .cls-388, .cls-389, .cls-390, .cls-391, .cls-392, .cls-393, .cls-394 {
        fill-rule: evenodd;
      }

      .cls-2 {
        fill: #602027;
      }

      .cls-3 {
        fill: #59122e;
      }

      .cls-4 {
        fill: #eeab71;
      }

      .cls-5 {
        fill: #1c4e65;
      }

      .cls-6 {
        fill: #922530;
      }

      .cls-7 {
        fill: #b23f40;
      }

      .cls-8 {
        fill: #da7a57;
      }

      .cls-9 {
        fill: #f7f3e2;
      }

      .cls-10 {
        fill: #17304c;
      }

      .cls-11 {
        fill: #380e21;
      }

      .cls-12 {
        fill: #fcc18d;
      }

      .cls-13 {
        fill: #29676b;
      }

      .cls-14 {
        fill: #5b8b8d;
      }

      .cls-15 {
        fill: #e09063;
      }

      .cls-16 {
        fill: #19253c;
      }

      .cls-17 {
        fill: #b95042;
      }

      .cls-18 {
        fill: #f6f6e9;
      }

      .cls-19 {
        fill: #38656d;
      }

      .cls-20 {
        fill: #d73030;
      }

      .cls-21 {
        fill: #c7ddce;
      }

      .cls-22 {
        fill: #abc3b9;
      }

      .cls-23 {
        fill: #c65645;
      }

      .cls-24 {
        fill: #fbebcd;
      }

      .cls-25 {
        fill: #f2ecd7;
      }

      .cls-26 {
        fill: #153455;
      }

      .cls-27 {
        fill: #eaaa74;
      }

      .cls-28 {
        fill: #c36f50;
      }

      .cls-29 {
        fill: #481e30;
      }

      .cls-30 {
        fill: #f9bc7f;
      }

      .cls-31 {
        fill: #eb6a58;
      }

      .cls-32 {
        fill: #f7f0de;
      }

      .cls-33 {
        fill: #1c2c41;
      }

      .cls-34 {
        fill: #813441;
      }

      .cls-35 {
        fill: #1d4560;
      }

      .cls-36 {
        fill: #f2efdb;
      }

      .cls-37 {
        fill: #112037;
      }

      .cls-38 {
        fill: #102547;
      }

      .cls-39 {
        fill: #141d3d;
      }

      .cls-40 {
        fill: #f7e2b9;
      }

      .cls-41 {
        fill: #d32129;
      }

      .cls-42 {
        fill: #2c535f;
      }

      .cls-43 {
        fill: #1a3d53;
      }

      .cls-44 {
        fill: #b81d29;
      }

      .cls-45 {
        fill: #3c5b65;
      }

      .cls-46 {
        fill: #182b3e;
      }

      .cls-47 {
        fill: #7b1c33;
      }

      .cls-48 {
        fill: #13213b;
      }

      .cls-49 {
        fill: #8b2a32;
      }

      .cls-50 {
        fill: #cc4e3d;
      }

      .cls-51 {
        fill: #b65f59;
      }

      .cls-52 {
        fill: #7b2934;
      }

      .cls-53 {
        fill: #c86d57;
      }

      .cls-54 {
        fill: #c0131b;
      }

      .cls-55 {
        fill: #f5c08e;
      }

      .cls-56 {
        fill: #ad7e73;
      }

      .cls-57 {
        fill: #16192e;
      }

      .cls-58 {
        fill: #d1272c;
      }

      .cls-59 {
        fill: #88192c;
      }

      .cls-60 {
        fill: #92928f;
      }

      .cls-61 {
        fill: #b86c6f;
      }

      .cls-62 {
        fill: #f1b982;
      }

      .cls-63 {
        fill: #f4f2e6;
      }

      .cls-64 {
        fill: #86240f;
      }

      .cls-65 {
        fill: #4e2f42;
      }

      .cls-66 {
        fill: #94363f;
      }

      .cls-67 {
        fill: #11253b;
      }

      .cls-68 {
        fill: #3f6d76;
      }

      .cls-69 {
        fill: #c72b2f;
      }

      .cls-70 {
        fill: #fbd6a5;
      }

      .cls-71 {
        fill: #2e4f5e;
      }

      .cls-72 {
        fill: #fbdaa3;
      }

      .cls-73 {
        fill: #d37353;
      }

      .cls-74 {
        fill: #a32c2d;
      }

      .cls-75 {
        fill: #e27f4d;
      }

      .cls-76 {
        fill: #cc674f;
      }

      .cls-77 {
        fill: #eeede6;
      }

      .cls-78 {
        fill: #f8bf88;
      }

      .cls-79 {
        fill: #68162f;
      }

      .cls-80 {
        fill: #020a13;
      }

      .cls-81 {
        fill: #243f53;
      }

      .cls-82 {
        fill: #eba26d;
      }

      .cls-83 {
        fill: #ee533a;
      }

      .cls-84 {
        fill: #241623;
      }

      .cls-85 {
        fill: #cf7d62;
      }

      .cls-86 {
        fill: #d76a50;
      }

      .cls-87 {
        fill: #edad80;
      }

      .cls-88 {
        fill: #182437;
      }

      .cls-89 {
        fill: #84c4ec;
      }

      .cls-90 {
        fill: #27475a;
      }

      .cls-91 {
        fill: #cf9f97;
      }

      .cls-92 {
        fill: #4d2424;
      }

      .cls-93 {
        fill: #8c3e33;
      }

      .cls-94 {
        fill: #d77955;
      }

      .cls-95 {
        fill: #eae9e5;
      }

      .cls-96 {
        fill: #171c2a;
      }

      .cls-97 {
        fill: #7b3642;
      }

      .cls-98 {
        fill: #1b4155;
      }

      .cls-99 {
        fill: #142749;
      }

      .cls-100 {
        fill: #0f1a27;
      }

      .cls-101 {
        fill: #e73028;
      }

      .cls-102 {
        fill: #a23b44;
      }

      .cls-103 {
        fill: #142442;
      }

      .cls-104 {
        fill: #161d36;
      }

      .cls-105 {
        fill: #163152;
      }

      .cls-106 {
        fill: #22445a;
      }

      .cls-107 {
        fill: #f3c18a;
      }

      .cls-108 {
        fill: #ce7554;
      }

      .cls-109 {
        fill: #cee2d6;
      }

      .cls-110 {
        fill: #4d2036;
      }

      .cls-111 {
        fill: #132732;
      }

      .cls-112 {
        fill: #b3312f;
      }

      .cls-113 {
        fill: #75172e;
      }

      .cls-114 {
        fill: #162848;
      }

      .cls-115 {
        fill: #e38f60;
      }

      .cls-116 {
        fill: #245568;
      }

      .cls-117 {
        fill: #2d2825;
      }

      .cls-118 {
        fill: #f8c6af;
      }

      .cls-119 {
        fill: #cc5b43;
      }

      .cls-120 {
        fill: #bc6251;
      }

      .cls-121 {
        fill: #9f393a;
      }

      .cls-122 {
        fill: #2a505e;
      }

      .cls-123 {
        fill: #661814;
      }

      .cls-124 {
        fill: #26213a;
      }

      .cls-125 {
        fill: #b2242e;
      }

      .cls-126 {
        fill: #de8f64;
      }

      .cls-127 {
        fill: #315a63;
      }

      .cls-128 {
        fill: #91aea1;
      }

      .cls-129 {
        fill: #e5e7d5;
      }

      .cls-130 {
        fill: #37142b;
      }

      .cls-131 {
        fill: #231823;
      }

      .cls-132 {
        fill: #f3b786;
      }

      .cls-133 {
        fill: #0b3359;
      }

      .cls-134 {
        fill: #81a395;
      }

      .cls-135 {
        fill: #5e2a23;
      }

      .cls-136 {
        fill: #e1372b;
      }

      .cls-137 {
        fill: #2e4953;
      }

      .cls-138 {
        fill: #ed5b3f;
      }

      .cls-139 {
        fill: #1e4961;
      }

      .cls-140 {
        fill: #346274;
      }

      .cls-141 {
        fill: #cba684;
      }

      .cls-142 {
        fill: #a9523f;
      }

      .cls-143 {
        fill: #e12b26;
      }

      .cls-144 {
        fill: #e72d2d;
      }

      .cls-145 {
        fill: #12223b;
      }

      .cls-146 {
        fill: #2e161f;
      }

      .cls-147 {
        fill: #184060;
      }

      .cls-148 {
        fill: #0c2a4c;
      }

      .cls-149 {
        fill: #a8bfba;
      }

      .cls-150 {
        fill: #102643;
      }

      .cls-151 {
        fill: #d53837;
      }

      .cls-152 {
        fill: #294a4e;
      }

      .cls-153 {
        fill: #fad9ac;
      }

      .cls-154 {
        fill: #1c2e46;
      }

      .cls-155 {
        fill: #1f354a;
      }

      .cls-156 {
        fill: #c16c53;
      }

      .cls-157 {
        fill: #10213c;
      }

      .cls-158 {
        fill: #441c2d;
      }

      .cls-159 {
        fill: #eef6ed;
      }

      .cls-160 {
        fill: #b80e22;
      }

      .cls-161 {
        fill: #94b6c3;
      }

      .cls-162 {
        fill: #c77657;
      }

      .cls-163 {
        fill: #281e34;
      }

      .cls-164 {
        fill: #481116;
      }

      .cls-165 {
        fill: #64263a;
      }

      .cls-166 {
        fill: #af3f3d;
      }

      .cls-167 {
        fill: #154b78;
      }

      .cls-168 {
        fill: #872f3a;
      }

      .cls-169 {
        fill: #462033;
      }

      .cls-170 {
        fill: #fae9c7;
      }

      .cls-171 {
        fill: #165181;
      }

      .cls-172 {
        fill: #0f1c43;
      }

      .cls-173 {
        fill: #451627;
      }

      .cls-174 {
        fill: #212140;
      }

      .cls-175 {
        fill: #fce2bf;
      }

      .cls-176 {
        fill: #c76c55;
      }

      .cls-177 {
        fill: #d06f53;
      }

      .cls-178 {
        fill: #93363c;
      }

      .cls-179 {
        fill: #89323c;
      }

      .cls-180 {
        fill: #a95340;
      }

      .cls-181 {
        fill: #5b233b;
      }

      .cls-182 {
        fill: #dcbc9c;
      }

      .cls-183 {
        fill: #f4f2e4;
      }

      .cls-184 {
        fill: #191118;
      }

      .cls-185 {
        fill: #83b1c4;
      }

      .cls-186 {
        fill: #5a7775;
      }

      .cls-187 {
        fill: #df845e;
      }

      .cls-188 {
        fill: #140918;
      }

      .cls-189 {
        fill: #2d2031;
      }

      .cls-190 {
        fill: #11203b;
      }

      .cls-191 {
        fill: #cf654a;
      }

      .cls-192 {
        fill: #7c182f;
      }

      .cls-193 {
        fill: #151c2f;
      }

      .cls-194 {
        fill: #ae1729;
      }

      .cls-195 {
        fill: #16213b;
      }

      .cls-196 {
        fill: #f2f5d5;
      }

      .cls-197 {
        fill: #f0523a;
      }

      .cls-198 {
        fill: #ac2c34;
      }

      .cls-199 {
        fill: #6b2a3d;
      }

      .cls-200 {
        fill: #d1262b;
      }

      .cls-201 {
        fill: #aa433f;
      }

      .cls-202 {
        fill: #b67067;
      }

      .cls-203 {
        fill: #6e112c;
      }

      .cls-204 {
        fill: #eaaf8a;
      }

      .cls-205 {
        fill: #a61c2b;
      }

      .cls-206 {
        fill: #e8eed5;
      }

      .cls-207 {
        fill: #dc2b2d;
      }

      .cls-208 {
        fill: #9e9591;
      }

      .cls-209 {
        fill: #b8483f;
      }

      .cls-210 {
        fill: #205b75;
      }

      .cls-211 {
        fill: #22354a;
      }

      .cls-212 {
        fill: #cd252f;
      }

      .cls-213 {
        fill: #ed9f69;
      }

      .cls-214 {
        fill: #d9ccc8;
      }

      .cls-215 {
        fill: #113362;
      }

      .cls-216 {
        fill: #d98d6e;
      }

      .cls-217 {
        fill: #352327;
      }

      .cls-218 {
        fill: #0e1f47;
      }

      .cls-219 {
        fill: #1d243c;
      }

      .cls-220 {
        fill: #f58048;
      }

      .cls-221 {
        fill: #f6ce9f;
      }

      .cls-222 {
        fill: #141e3b;
      }

      .cls-223 {
        fill: #f9d9af;
      }

      .cls-224 {
        fill: #311a2d;
      }

      .cls-225 {
        fill: #f9d5a8;
      }

      .cls-226 {
        fill: #7d1d30;
      }

      .cls-227 {
        fill: #df8a61;
      }

      .cls-228 {
        fill: #a12224;
      }

      .cls-229 {
        fill: #f9d3a4;
      }

      .cls-230 {
        fill: #1f4a65;
      }

      .cls-231 {
        fill: #ab3f46;
      }

      .cls-232 {
        fill: #111b35;
      }

      .cls-233 {
        fill: #931417;
      }

      .cls-234 {
        fill: #151c33;
      }

      .cls-235 {
        fill: #172743;
      }

      .cls-236 {
        fill: #9e2f37;
      }

      .cls-237 {
        fill: #f5e7cb;
      }

      .cls-238 {
        fill: #74162f;
      }

      .cls-239 {
        fill: #925e5d;
      }

      .cls-240 {
        fill: #24475b;
      }

      .cls-241 {
        fill: #faeed3;
      }

      .cls-242 {
        fill: #326577;
      }

      .cls-243 {
        fill: #de2529;
      }

      .cls-244 {
        fill: #717663;
      }

      .cls-245 {
        fill: #ac2a2b;
      }

      .cls-246 {
        fill: #3c1823;
      }

      .cls-247 {
        fill: #f8cd99;
      }

      .cls-248 {
        fill: #1e4164;
      }

      .cls-249 {
        fill: #fae5ba;
      }

      .cls-250 {
        fill: #315d6a;
      }

      .cls-251 {
        fill: #9fb3a8;
      }

      .cls-252 {
        fill: #c77669;
      }

      .cls-253 {
        fill: #3e1a1b;
      }

      .cls-254 {
        fill: #18273f;
      }

      .cls-255 {
        fill: #d28870;
      }

      .cls-256 {
        fill: #a43c3e;
      }

      .cls-257 {
        fill: #c3202a;
      }

      .cls-258 {
        fill: #8cadb1;
      }

      .cls-259 {
        fill: #2b191b;
      }

      .cls-260 {
        fill: #a54f52;
      }

      .cls-261 {
        fill: #c09c8e;
      }

      .cls-262 {
        fill: #d4825b;
      }

      .cls-263 {
        fill: #a11e2b;
      }

      .cls-264 {
        fill: #983c40;
      }

      .cls-265 {
        fill: #f9e2be;
      }

      .cls-266 {
        fill: #cd2734;
      }

      .cls-267 {
        fill: #18253a;
      }

      .cls-268 {
        fill: #fbebd1;
      }

      .cls-269 {
        fill: #93162a;
      }

      .cls-270 {
        fill: #e8a677;
      }

      .cls-271 {
        fill: #c85f50;
      }

      .cls-272 {
        fill: #c72029;
      }

      .cls-273 {
        fill: #c87661;
      }

      .cls-274 {
        fill: #be766c;
      }

      .cls-275 {
        fill: #366674;
      }

      .cls-276 {
        fill: #14203c;
      }

      .cls-277 {
        fill: #faeac4;
      }

      .cls-278 {
        fill: #4b152f;
      }

      .cls-279 {
        fill: #cf7458;
      }

      .cls-280 {
        fill: #521431;
      }

      .cls-281 {
        fill: #1a516c;
      }

      .cls-282 {
        fill: #eef2e5;
      }

      .cls-283 {
        fill: #e37952;
      }

      .cls-284 {
        fill: #16203a;
      }

      .cls-285 {
        fill: #391416;
      }

      .cls-286 {
        fill: #7d2539;
      }

      .cls-287 {
        fill: #bb534c;
      }

      .cls-288 {
        fill: #d97854;
      }

      .cls-289 {
        fill: #6d3935;
      }

      .cls-290 {
        fill: #1a5b79;
      }

      .cls-291 {
        fill: #d4a094;
      }

      .cls-292 {
        fill: #8d2a38;
      }

      .cls-293 {
        fill: #b2554b;
      }

      .cls-294 {
        fill: #7f564b;
      }

      .cls-295 {
        fill: #d8724d;
      }

      .cls-296 {
        fill: #cd7857;
      }

      .cls-297 {
        fill: #e59969;
      }

      .cls-298 {
        fill: #f7ca98;
      }

      .cls-299 {
        fill: #326676;
      }

      .cls-300 {
        fill: #c58a79;
      }

      .cls-301 {
        fill: #335e6d;
      }

      .cls-302 {
        fill: #ebf3e6;
      }

      .cls-303 {
        fill: #e79465;
      }

      .cls-304 {
        fill: #5f8487;
      }

      .cls-305 {
        fill: #351423;
      }

      .cls-306 {
        fill: #e3eee9;
      }

      .cls-307 {
        fill: #901a2c;
      }

      .cls-308 {
        fill: #31525b;
      }

      .cls-309 {
        fill: #1b455f;
      }

      .cls-310 {
        fill: #c8babb;
      }

      .cls-311 {
        fill: #f7bd86;
      }

      .cls-312 {
        fill: #132331;
      }

      .cls-313 {
        fill: #c89583;
      }

      .cls-314 {
        fill: #f7d197;
      }

      .cls-315 {
        fill: #f6c693;
      }

      .cls-316 {
        fill: #e18860;
      }

      .cls-317 {
        fill: #511923;
      }

      .cls-318 {
        fill: #e6ede0;
      }

      .cls-319 {
        fill: #0f375a;
      }

      .cls-320 {
        fill: #3a2235;
      }

      .cls-321 {
        fill: #d76846;
      }

      .cls-322 {
        fill: #e3b9b5;
      }

      .cls-323 {
        fill: #f6f7eb;
      }

      .cls-324 {
        fill: #fbefd1;
      }

      .cls-325 {
        fill: #132244;
      }

      .cls-326 {
        fill: #4f132e;
      }

      .cls-327 {
        fill: #eb5034;
      }

      .cls-328 {
        fill: #345461;
      }

      .cls-329 {
        fill: #c25e47;
      }

      .cls-330 {
        fill: #142237;
      }

      .cls-331 {
        fill: #f9f0d1;
      }

      .cls-332 {
        fill: #350f13;
      }

      .cls-333 {
        fill: #f7cfa6;
      }

      .cls-334 {
        fill: #e69c6a;
      }

      .cls-335 {
        fill: #fbe2bb;
      }

      .cls-336 {
        fill: #121b37;
      }

      .cls-337 {
        fill: #d36c53;
      }

      .cls-338 {
        fill: #923636;
      }

      .cls-339 {
        fill: #7a2a30;
      }

      .cls-340 {
        fill: #edac74;
      }

      .cls-341 {
        fill: #e5eddc;
      }

      .cls-342 {
        fill: #ce5f47;
      }

      .cls-343 {
        fill: #054a6b;
      }

      .cls-344 {
        fill: #1a425b;
      }

      .cls-345 {
        fill: #13223e;
      }

      .cls-346 {
        fill: #0d2930;
      }

      .cls-347 {
        fill: #661832;
      }

      .cls-348 {
        fill: #894230;
      }

      .cls-349 {
        fill: #974733;
      }

      .cls-350 {
        fill: #121216;
      }

      .cls-351 {
        fill: #7e132f;
      }

      .cls-352 {
        fill: #7b1e2e;
      }

      .cls-353 {
        fill: #f5f4e7;
      }

      .cls-354 {
        fill: #2d4b59;
      }

      .cls-355 {
        fill: #5c6b75;
      }

      .cls-356 {
        fill: #c47260;
      }

      .cls-357 {
        fill: #360806;
      }

      .cls-358 {
        fill: #929899;
      }

      .cls-359 {
        fill: #f8b981;
      }

      .cls-360 {
        fill: #e18e60;
      }

      .cls-361 {
        fill: #09244d;
      }

      .cls-362 {
        fill: #de9888;
      }

      .cls-363 {
        fill: #ac1e2d;
      }

      .cls-364 {
        fill: #901927;
      }

      .cls-365 {
        fill: #9e1b29;
      }

      .cls-366 {
        fill: #b2968b;
      }

      .cls-367 {
        fill: #ac0f20;
      }

      .cls-368 {
        fill: #742936;
      }

      .cls-369 {
        fill: #84162b;
      }

      .cls-370 {
        fill: #f8cfa0;
      }

      .cls-371 {
        fill: #e6efd9;
      }

      .cls-372 {
        fill: #f6d6ab;
      }

      .cls-373 {
        fill: #558a94;
      }

      .cls-374 {
        fill: #542734;
      }

      .cls-375 {
        fill: #f9f6cb;
      }

      .cls-376 {
        fill: #611936;
      }

      .cls-377 {
        fill: #482038;
      }

      .cls-378 {
        fill: #eecca7;
      }

      .cls-379 {
        fill: #ca9f7f;
      }

      .cls-380 {
        fill: #e05b46;
      }

      .cls-381 {
        fill: #f6cc92;
      }

      .cls-382 {
        fill: #540f1d;
      }

      .cls-383 {
        fill: #b6463d;
      }

      .cls-384 {
        fill: #896e76;
      }

      .cls-385 {
        fill: #131a31;
      }

      .cls-386 {
        fill: #a26e6a;
      }

      .cls-387 {
        fill: #f5c58f;
      }

      .cls-388 {
        fill: #772c3f;
      }

      .cls-389 {
        fill: #acada1;
      }

      .cls-390 {
        fill: #191d39;
      }

      .cls-391 {
        fill: #aa1624;
      }

      .cls-392 {
        fill: #9f474b;
      }

      .cls-393 {
        fill: #a16e63;
      }

      .cls-394 {
        fill: #772536;
      }
    </style>
  </defs>
  <!-- Generator: Adobe Illustrator 28.7.1, SVG Export Plug-In . SVG Version: 1.2.0 Build 142)  -->
  <g>
    <g id="Layer_1">
      <path class="cls-154" d="M487.5,193.5c29.7,3.8,60.9,1,91,1-.4,5.1-1,10.1-2,15-4.2,1.6-8.5,2.2-13,2-26.4,0-53.3.3-80-2,0-5.4-.4-10.7-1-16h5Z"/>
      <path class="cls-26" d="M484.5,195.5c6.1,2.5,11.3,1.1,18,1.5,3.8,2.4,7.8,3.4,12,3,1.5,3,0,7.9,4,9-11.3-.4-22.6-.6-34-.5v-13Z"/>
      <path class="cls-137" d="M435.5,210.5h46v11c-1-3.1-1.3-6.5-1-10-15,0-30.3.4-45-1Z"/>
      <path class="cls-37" d="M434.5,210.5c12.2.8,24.5,1.4,37,1,.3,1.5,0,2.8-1,4-3.2-.4-6.5-.5-10-.5.3.3.7.7,1,1-3.1,2.8-1,7.7-2,11,7.3.5,14.7.7,22,.5-15.3,2-31.5.6-47,1v-18Z"/>
      <path class="cls-99" d="M471.5,211.5h9c-.4,5.6.9,10.7,2,16-7.7.1-15.3,0-23-.5,1-3.3-1.1-8.2,2-11-.3-.3-.7-.7-1-1,3.5,0,6.8.1,10,.5.9-1.2,1.3-2.5,1-4Z"/>
      <path class="cls-318" d="M434.5,210.5c26.6-1.9,54.3-1.2,81,1v17h-32c0-.7-.3-1-1-1-1.8-5.5-.7-11.4-1-17h-47Z"/>
      <path class="cls-206" d="M493.5,211.5c5.7-.2,11.3,0,17,.5,3.5,4.5,3.8,9.1,1,14-6.5.4-14.4,1.5-20-2,5.2-2.8-3.2-9.4,2-12.5Z"/>
      <path class="cls-127" d="M563.5,211.5v16c-.7,0-1,.3-1,1h-31v15c-1-5.1-1.3-10.5-1-16h-3v12h-4v4h-4v-6c-6.3,2.3-14.1,3-17-4.5,1.7-.3,3.3-.7,5-1-7.5-.7-17.5-.1-24-3.5h32v-17c16.2-.1,32.2-.1,48,0Z"/>
      <path class="cls-88" d="M487.5,193.5h92v17h15v18c-10.5.7-20.4-1.2-31-1v-16c4.5.2,8.8-.4,13-2,1-4.9,1.6-9.9,2-15-30.1,0-61.3,2.8-91-1Z"/>
      <path class="cls-211" d="M562.5,228.5c2.6-2.8,12.3-.3,16,0-1,5.8-1.3,11.8-1,18-15.3,0-31,.6-46-1h32c.3-5.9,0-11.5-1-17Z"/>
      <path class="cls-284" d="M562.5,228.5c1,5.5,1.3,11.1,1,17h-32v-17h31Z"/>
      <path class="cls-46" d="M432.5,228.5c-6.6,2.2-14.5-.3-21,3-1,7.4,1.3,12,7,14h-16c.3-5.9,0-11.8-1-17.5,10.3.2,20.6.3,31,.5Z"/>
      <path class="cls-90" d="M421.5,229.5c3.5,3,7.9.4,12,2.5-3.5,2.2-1.2,6.3-1,9.5,1.1-.1,2.1,0,3,.5-10.5,4.7-26.6,6.7-24-10.5,3.2-1.4,6.5-2,10-2Z"/>
      <path class="cls-250" d="M432.5,228.5c16.2-.4,31.7.5,48,1.5-7,.3-14,.7-21,1,3.6,1,7.3,1.8,11,2.5,1,1.9,1.3,3.9,1,6-2.7-.2-5.4,0-8,.5,2.4,1.8,4.9,1.9,7.5.5,2.5.6,5,1.3,7.5,2-14.7,2.2-31.8.7-45,4h-14v-1c5.6-.2,10.9-1.4,16-3.5-.9-.5-1.9-.6-3-.5-.2-3.2-2.5-7.3,1-9.5-4.1-2.1-8.4.5-12-2.5,3.9.3,7.5,0,11-1Z"/>
      <path class="cls-19" d="M481.5,227.5c.8,0,2.1-.2,2,1,6.5,3.4,16.5,2.8,24,3.5-1.7.3-3.3.7-5,1,2.9,7.5,10.7,6.8,17,4.5v6h4v-4h4v-12h3c-.6,6.3.7,12.1,1,18,10.5,1,21.2,1.3,32,1v34h-16v-16c-4.6,0-13.2-3.5-17-1h-47c-1.3-5.5-1.3-11,0-16.5-16.2-2.8-32.7-1-49-1.5,14.5-.7,29.2-1.7,44-3-2.5-.7-5-1.4-7.5-2-2.6,1.4-5.1,1.3-7.5-.5,2.6-.5,5.3-.7,8-.5.3-2.1,0-4.1-1-6-3.7-.7-7.4-1.5-11-2.5,7-.3,14-.7,21-1-7.2-.2-14.2-.7-21-1.5,7.5.3,14.9,0,22-1Z"/>
      <path class="cls-328" d="M594.5,210.5c2,11.6.7,24.1,1,36h-18c-.3-6.2,0-12.2,1-18h16v-18Z"/>
      <path class="cls-232" d="M656.5,263.5c1.3-.2,2.3,0,3,1h-9c-2.7,10.8-3.7,21.8-3,33,9.5.8,18.6-.4,28,0v17h16v4c-7.3-4.8-5.9,17-7,21h-3c.2-1.4,0-2.7-.5-4-1.2,2.1-1.9,4.5-2,7-.9.5-1.8,1.2-2.5,2,4.4,3.3,9.4,4.7,15,4v1c-3.8.7-15.2-1.5-17,1-5.1-2.3-10.7,1.2-16,1,.9,10,.9,20,0,30v-16h-16v17h-15c-.6-11.8,1.5-23,1-35h-17c-.7-5.6,1.5-12.6-1-17.5-21-.3-42-.7-63-1,.8-1.5,1.6-1.7,2.5-.5,7.1-1,14.2-1.7,21.5-2v-3h12v-4h16v-8h-8v-10c4.3-.4,8.3.2,12,2,2.9-1.9,7.6-2.4,9-6,.7-16,1.3-32,2-48-1.1-3.6-.5-6.9,2-10,.9,1.2,1.3,2.5,1,4h6c.2,1.6-.1,3.1-1,4.5,3,3.1,11.8-1.8,17,.5,1.7,4.9,2.3,9.9,2,15h15Z"/>
      <path class="cls-251" d="M434.5,245.5h29c-3.4,4.9-3.7,10-1,15.5l-1,1c6.8.2,13.5.7,20,1.5-15.8,0-31.4.3-47-1,1.2-3.6-2.3-16.6,0-17Z"/>
      <path class="cls-129" d="M385.5,245.5h34c-.6,5.1-2.2,9.7-2,15-5.5.2-10.9.8-16,2v1c-5.8.6-11.1,0-16-2-.6-5-.9-10-1-15,.7,0,1-.3,1-1Z"/>
      <path class="cls-33" d="M563.5,246.5h32c-1,5.9-1.3,11.9-1,18-10.5.7-20.4-1.4-31-1v-17Z"/>
      <path class="cls-134" d="M463.5,245.5c6.7-.2,13.4.3,20,1.5-1.3,5.5-1.3,11,0,16.5-7.3-.4-14.4-1.5-22-1.5l1-1c-2.7-5.5-2.4-10.6,1-15.5Z"/>
      <path class="cls-304" d="M419.5,246.5h14c.9,5.2,1.3,10.6,1,16-5,1.3-10,1.3-15,0-1.5-5.1-1.7-11,0-16Z"/>
      <path class="cls-148" d="M384.5,246.5c.1,5,.4,10,1,15-4.9,1.7-9.7,3-14.5,4-.5-6.3-.7-12.7-.5-19h14Z"/>
      <path class="cls-330" d="M385.5,245.5c-1.5,2.4-11.6.3-15,1-.2,6.3,0,12.7.5,19,4.8-1,9.6-2.3,14.5-4,6.6,3.3,14.7,1.3,22,2.5-1.3.3-2.4.8-3.5,1.5-.5,4.7-.7,9.3-.5,14h13c-4.5,1-9.1,1.3-14,1v17h-32c-1-17.3-1.3-34.6-1-52h16Z"/>
      <path class="cls-190" d="M443.5,263.5h87v17c-.7,0-1,.3-1,1-26-1.2-52-1-78-1v-16c-5,.2-10,0-15-.5,2.3-.5,4.6-.7,7-.5Z"/>
      <path class="cls-302" d="M547.5,264.5c-5.5-1.1-9.1.9-11,6,1.1,1.1,1.1,2.3,0,3.5,2.6,3.8,6.2,5.6,11,5.5v1h-17c.4-20.3-4.4-19.2,17-16Z"/>
      <path class="cls-42" d="M563.5,263.5c5.5-.3,10.9,0,16,1,.3,5.4,0,10.8-1,16h-15v-17Z"/>
      <path class="cls-196" d="M547.5,264.5v15c-4.8.1-8.4-1.7-11-5.5,1.1-1.2,1.1-2.4,0-3.5,1.9-5.1,5.5-7.1,11-6Z"/>
      <path class="cls-319" d="M401.5,263.5v-1c5.8-.6,11.1,0,16,2-1,4.8-1.3,9.8-1,15h-13c-.2-4.7,0-9.3.5-14,1.1-.7,2.2-1.2,3.5-1.5-2-.5-4-.7-6-.5Z"/>
      <path class="cls-354" d="M595.5,246.5h16v52h-17c2.4-17.6-1.7-34.8,1-52Z"/>
      <path class="cls-116" d="M402.5,280.5h-16c-.2-5,0-10,.5-15,5.1-1,10.2-1.3,15.5-1v16Z"/>
      <path class="cls-159" d="M418.5,253.5c-.3,3.1,0,6.1,1,9,5.4,1.6,10.6.9,16,0v18h-18v-16c-4.9-1.9-10.2-2.6-16-2,5.1-1.2,10.5-1.8,16-2-.3-2.6,0-4.9,1-7Z"/>
      <path class="cls-80" d="M529.5,281.5c1.9-2.5,14-.3,18-1,10.3,0,20.7,0,31,0-15.5.7-31.2,1.7-47,3-1.5.1-.5-2.1-2-2Z"/>
      <path class="cls-234" d="M603.5,227.5h23v18h17v17c4.5-.3,8.9,0,13,1h-15c.3-5.1-.3-10.1-2-15-5.3-2.3-14.1,2.6-17-.5.9-1.4,1.2-2.9,1-4.5h-6c.3-1.5,0-2.8-1-4-2.5,3.1-3.1,6.4-2,10-.7,16-1.3,32-2,48-1.4,3.6-6.1,4-9,6-3.7-1.8-7.7-2.4-12-2v10h8v8h-16v4h-12v3c-7.2.3-14.4,1-21.5,2-.9-1.2-1.7-1-2.5.5,20.7,1.7,44.9-2,64,2.5h-64c-1,5.1-1.3,10.5-1,16h-18c5.5-1,11.1-1.3,17-1,.2-5-.2-10-1-15h-13v4h-4c1-5.5-4.4-12,0-16.5-3.9-1.1-10.1.9-12-3.5h16v-32c15.8-1.3,31.5-2.3,47-3,.9-5.2,1.3-10.6,1-16h15c1,11.2,1,22.5,0,34h17v-52h-16v-18c2.7,0,5.4-.4,8-1Z"/>
      <path class="cls-68" d="M499.5,280.5c10,.3,20,.7,30,1,.7,0,1,.3,1,1h-15v15h-16c-.3-5.8-.3-11.4,0-17Z"/>
      <path class="cls-230" d="M530.5,282.5c0,.7.3,1,1,1v20c-1-2.4-1.3-5.1-1-8-5,.8-10,1.2-15,1v-14h15Z"/>
      <path class="cls-242" d="M417.5,264.5c-.6,11.1,1.3,21.9,1,33h-16v-17c4.9.3,9.5,0,14-1-.3-5.2,0-10.2,1-15Z"/>
      <path class="cls-139" d="M435.5,262.5c2.9-.3,5.6,0,8,1-2.4-.2-4.7,0-7,.5,5,.5,10,.7,15,.5v16h15c.2,5.3,0,10.7-.5,16-4.4,1-8.9,1.3-13.5,1-1.2-5.5-2.9-10.9-2-17h-15v-18Z"/>
      <path class="cls-22" d="M466.5,280.5h33c-.3,5.6-.3,11.2,0,17h-33v5c-.9-1.1-1.3-2.4-1-4-4.5.3-8.9,0-13-1,4.6.3,9.1,0,13.5-1,.5-5.3.7-10.7.5-16Z"/>
      <path class="cls-114" d="M659.5,264.5v33c-3.9.5-7.9.5-12,0-.7-11.2.3-22.2,3-33h9Z"/>
      <path class="cls-128" d="M452.5,296.5v1c4.1,1,8.5,1.3,13,1,.7,5.4,2.9,10.2,2,16h-17c.9-3.4-2.2-18.5,2-18Z"/>
      <path class="cls-312" d="M499.5,297.5h16c.3,4.9,0,9.5-1,14v-12c-6.2.8-12.4,1.8-18.5,3-7.2-3.8-12,1.9-20.5-2,.5-.7,1.2-1.2,2-1.5-3.3-.7-6.7-.7-10,0,1.1,5.4,1.3,10.9.5,16.5-7.3,3.4-18.2-5.1-16.5,8h-1v-9h17c.6-5.8-1.4-11.2-1-17h33Z"/>
      <path class="cls-157" d="M370.5,297.5v17c-5.2-.2-10.5-.2-16,0v-17h16Z"/>
      <path class="cls-14" d="M370.5,297.5h32v17h-32v-17Z"/>
      <path class="cls-254" d="M417.5,280.5h33c-.5,5.6.1,11,2,16-4.4.1-2.7,13.2-3,17-5.6-.3-11.1,0-16.5,1-.6,22.4,2.2,44.8-1.5,67-3.9.9-7.9,1.3-12,1v-17h-17v-17c5.9.4,11.5,0,17-1.5-1-5.1-1.3-10.2-1-15.5-2.6-.9-42.4.9-27,4-.7,4.4.6,7.9,4,10.5-9.4,6.2-9.5-8.6-9-14.5h-16v-17h32v-17h16c.3-5.8,0-11.4-1-17Z"/>
      <path class="cls-45" d="M531.5,303.5v12h-16c-2.6-5.4,1.4-12.6,0-19,5,.2,10-.2,15-1-.3,2.9,0,5.6,1,8Z"/>
      <path class="cls-104" d="M514.5,311.5c-.8,7.7,7.7,6.9,13,7.5-4.4,4.5,1,11,0,16.5h4v-4h13c.8,5,1.2,10,1,15-14.9.2-29.1,1.6-44,1v-16h-34v35c-5.2-.3-11.1.9-16-1,.4-16-.8-32.1.5-48,2.4-4.1,11.1.8,16-2,.8-5.6.6-11.1-.5-16.5,3.3-.7,6.7-.7,10,0-.8.3-1.5.8-2,1.5,8.6,3.9,13.3-1.8,20.5,2,6.1-1.2,12.3-2.2,18.5-3v12Z"/>
      <path class="cls-122" d="M370.5,314.5v17h-16c.3,1.6,0,2.9-1,4,.3-1.6,0-2.9-1-4,1.9-5.4,2.5-11,2-17,5.5-.2,10.8-.2,16,0Z"/>
      <path class="cls-111" d="M450.5,297.5v17h-16v51h13c-4.3.3-9.7,3.2-14,1-.3-17.3-.5-34.7-.5-52,5.4-1,10.9-1.3,16.5-1-.3-5.5,0-10.9,1-16Z"/>
      <path class="cls-186" d="M450.5,314.5c-.6,6,1.9,13.2-2.5,18-4.4-1-8.9-1.3-13.5-1v-17h16Z"/>
      <path class="cls-240" d="M626.5,313.5c10.6,1,21.3,1.3,32,1v17c-10.7.2-21.4-.1-32-1v-17Z"/>
      <path class="cls-145" d="M354.5,314.5c.5,6-.1,11.6-2,17-4.7,1.3-9.3,1.3-14,0-1-5.5-1.3-11.1-1-17h17Z"/>
      <path class="cls-222" d="M370.5,331.5h16c.5,4.7-1.7,12.1,3,15-.3.7-.7,1.3-1,2-11.3.8-22.7.9-34,.5-.6-.4-.9-.9-1-1.5-.2-5.6,0-10.7,1-16h16Z"/>
      <path class="cls-255" d="M547.5,331.5h64v16c5.1,1,10.5,1.3,16,1v33h-1v-32h-15v50h-1c.4-22.4-.4-44.8-1-67h-61v15h-1v-16Z"/>
      <path class="cls-155" d="M402.5,348.5h-14c.3-.7.7-1.3,1-2,2.1,1.5,4.1,1.3,6-.5-3.4-2.6-4.7-6.1-4-10.5-15.4-3.1,24.2-4.9,27-4-.3,5.3,0,10.4,1,15.5-5.5,1.4-11.1,1.9-17,1.5Z"/>
      <path class="cls-389" d="M338.5,331.5c4.7,1.3,9.3,1.3,14,0,2.4,4.6.4,10.9,1,16-5.2-.4-10.2.3-15,2v-18Z"/>
      <path class="cls-8" d="M609.5,347.5c-18.8,1-39,2.8-57-1.5-.7,1.9-1.8,3.4-3.5,4.5-1.3-5.8-.1-12.1-.5-18h61v15Z"/>
      <path class="cls-38" d="M691.5,318.5v30c-5.6.7-10.6-.7-15-4,.7-.8,1.6-1.5,2.5-2,.1-2.5.8-4.9,2-7,.5,1.3.7,2.6.5,4h3c1.1-4-.3-25.9,7-21Z"/>
      <path class="cls-271" d="M471.5,332.5h29v15c-2.4.4-4.7,1-7,2-4.2-1.9-8.5-2.4-13-1.5-.7,2.6-2.4,3.7-5,3.5v4h-4c.3,1.5,0,2.8-1,4-1.6-9.2-1.3-18.2,1-27Z"/>
      <path class="cls-274" d="M501.5,347.5h-1v-15h-32c.3,11.2,0,22.2-1,33v-34h34v16Z"/>
      <path class="cls-76" d="M471.5,332.5c-2.3,8.8-2.6,17.8-1,27,.9-1.2,1.3-2.5,1-4h4v-4c2.6.2,4.3-.9,5-3.5,4.5-.9,8.8-.4,13,1.5,10.5-4.5,21.7,1.8,33,1-3.7-.2-7.3,0-11,.5,7.2,10.7-5.8,11.9-13.5,9.5-.5.9-.6,1.9-.5,3-14.6,2.2-23.2-2.8-19,17-6.2.4-12.2-.4-18-2.5.5-.4.8-.9,1-1.5-4.7-1-6.4-3.7-5-8,2.5-.6,4.8-1.2,7-2,.8-11.2,1.4-22.5,1-34h3Z"/>
      <path class="cls-332" d="M547.5,331.5v16c-15,1.3-30,1.3-45,0h44c-.3-5.5,0-10.9,1-16Z"/>
      <path class="cls-308" d="M450.5,323.5h1v42h-17v-34c4.6-.3,9.1,0,13.5,1,2.2-2.5,3-5.5,2.5-9Z"/>
      <path class="cls-78" d="M609.5,347.5c1,4.1,1.3,8.5,1,13-.7-.4-1.2-1.1-1.5-2-1.1,1.7-1.9,3.6-2.5,5.5-14.6,1.3-29.3,1.8-44,1.5v-17c15.8.3,31.5,0,47-1Z"/>
      <path class="cls-71" d="M353.5,347.5c.1.6.4,1.1,1,1.5,16,.8,32-.8,48-.5v18c-21.7-.7-43.6,0-65-2.5.9-1.2,1.6-2.5,2-4-1.7-2.6-3.1-5.5-4-8.5,5.2-3.9,11.7-4.3,18-4Z"/>
      <path class="cls-73" d="M526.5,350.5h21c2.2,6.6-8,4.7-4,7.5-2.9,1.3-5.9,1.8-9,1.5v4c-12.6.8-25.3,1.2-38,1,1.4-1,3.1-1.3,5-1-.1-1.1,0-2.1.5-3,7.7,2.4,20.7,1.2,13.5-9.5,3.7-.5,7.3-.7,11-.5Z"/>
      <path class="cls-296" d="M562.5,348.5v17h-79c16.6-2.4,34.2-.1,51-2v-4c3.1.3,6.1-.2,9-1.5-4-2.7,6.2-1,4-7.5-15.3.1-31.1.3-46-3,15.7,1.3,31.3,1.3,47,0-.1,1.1,0,2.1.5,3,1.7-1.1,2.8-2.6,3.5-4.5,3.7-1.4,6.4,2,10,2.5Z"/>
      <path class="cls-267" d="M320.5,349.5h18c-.9.7-1.9,1.3-3,2,.9,3,2.3,5.9,4,8.5-.4,1.5-1.1,2.8-2,4,.6.5,1.3.6,2,.5.6,5.1,0,9.8-2,14v-13c-5.3.3-10.7.7-16,1-.4-5.8-1.5-11.1-1-17Z"/>
      <path class="cls-285" d="M611.5,347.5h17c.3,6.9,0,13.5-1,20v-19c-5.5.3-10.9,0-16-1Z"/>
      <path class="cls-229" d="M610.5,360.5c-.6,12.1,1.5,24.3-1.5,36-.4-4.7-1-9.4-2-14-2.4.9-4.9,1.3-7.5,1v-4c-2.7-.5-5.4-1.4-8-2.5,1.2-.9,1-1.7-.5-2.5-30.5-1.2-63.9,2.4-95.5,1v-4h-7c.3-2-.4-3.5-2-4.5,39.4-4.6,80.2,1.3,120-3,.6-1.9,1.4-3.8,2.5-5.5.3.9.8,1.6,1.5,2Z"/>
      <path class="cls-57" d="M351.5,365.5c16.7.3,33.3.6,50,1v16c-5.5-.3-10.9,0-16,1,2.5,9.9.3,20.8,1,31h-1c-.4-10.8-1.4-21.6-3-32.5.4-2.2,1.4-4,3-5.5-1.7-2.4-2.4-5-2-8-2.2,0-4.2.7-6,2-5-2.4-10-2.4-15,0-3.5-2.2-7.2-3.9-11-5Z"/>
      <path class="cls-336" d="M339.5,364.5c8.4-.7,15.9,1.5,23,6,5-2.4,10-2.4,15,0,1.8-1.3,3.8-1.9,6-2-.4,3,.3,5.6,2,8-1.6,1.5-2.6,3.3-3,5.5,1.6,11.2,2.7,22.3,3,33.5-5.4,0-10.8-.4-16,1v-17h-12c-2.1,10.6-2.6,21.7-2,33-.6,2.4-.9,2-1-1,.2-15.7,0-31.3-.5-47-5.2-1.9-10.7-2.6-16.5-2-.3-6.2,3.4-11.2,2-18Z"/>
      <path class="cls-295" d="M626.5,381.5c-.9,5.6-1.2,11.3-1,17-4.7.5-9.3.8-14,1v-50h15v32Z"/>
      <path class="cls-172" d="M631.5,359.5c4.8.6,4.6,10.3,7,14-.5,1.2-1.2,2.4-2,3.5,1,.8,2,1.7,3,2.5-1.9,3.3-7.6,1.6-11,2,.4-7.5,1.4-14.8,3-22Z"/>
      <path class="cls-153" d="M483.5,365.5h8c-1.5.8-3.1,1.3-5,1.5,1.6,1,2.3,2.5,2,4.5h7v4c31.6,1.4,65-2.2,95.5-1,1.5.8,1.7,1.6.5,2.5,2.6,1.1,5.3,2,8,2.5v4c2.6.3,5.1,0,7.5-1,1,4.6,1.6,9.3,2,14,.2-1.9.7-3.5,1.5-5,0,8,.1,16.1-1,24h-2c1.1-5.6,0-10.4-1-16-3.7,0-7.4-.3-11-1v-3h-4v-4h-8c.3-2.6,0-5.1-1-7.5-32.8-2.7-66.2-1-99-1.5v-17Z"/>
      <path class="cls-176" d="M483.5,365.5v17h-16c.3,5.9,0,11.8-1,17.5-21.3.7-43,1.2-64-.5h31c4.3-3.2,2.6-10.2,3-15,7.7.2,15.4-.1,23-1v-4h-6c-.7-4-1-8-1-12,5.3.2,9.7-1.7,15-1-2.2.8-4.5,1.4-7,2-1.4,4.3.3,7,5,8-.2.6-.5,1.1-1,1.5,5.8,2.1,11.8,2.9,18,2.5-.6-4.7-2.3-11.1,1-15Z"/>
      <path class="cls-106" d="M658.5,381.5c-4.8,1-9.8,1.3-15,1,.2-1.3,0-2.3-1-3v-14h16v16Z"/>
      <path class="cls-248" d="M675.5,349.5c.3,17.2,0,34.2-1,51-.4-4.9,1.6-11.5-2.5-15-.7-11-.7-22,0-33,1.8-.6,2.1-2.5,3.5-3Z"/>
      <path class="cls-60" d="M320.5,360.5c1,1.8,1.3,3.8,1,6,5.3-.3,10.7-.7,16-1v17c-13.5,1.9-9.7-5.1-18-11.5,1-3.4,1.3-6.9,1-10.5Z"/>
      <path class="cls-252" d="M450.5,365.5c3,.3,5.7,1.6,9,1-2.1,1-4.4,1.3-7,1,0,4,.3,8,1,12h6v4c-7.6.9-15.3,1.2-23,1-.4,4.8,1.3,11.8-3,15,0-5.5,3.4-10.2,1-16,5.6-1,11.3-1.3,17-1,.6-6-.7-11.4-1-17Z"/>
      <path class="cls-235" d="M674.5,350.5c-.7.8-1.5,1.4-2.5,2-.7,11-.7,22,0,33,4.1,3.5,2.1,10.1,2.5,15h-16c-1-5.5-1.3-11.1-1-17h-14c-1.8-.1-.7-2.8-1-4,.9.7,1.2,1.7,1,3,5.2.3,10.2,0,15-1,.9-10,.9-20,0-30,5.3.2,10.9-3.3,16-1Z"/>
      <path class="cls-146" d="M450.5,367.5c1,4.8,1.3,9.8,1,15-5.7-.3-11.4,0-17,1,1.4,4.6,1.1,8.9-1,13v-15h17v-14Z"/>
      <path class="cls-335" d="M527.5,382.5c18.4-.4,36.7,0,55,1.5.9,2.4,1.3,4.9,1,7.5h8v4h4v3c3.6.7,7.3,1.1,11,1,1,5.6,2.1,10.4,1,16-3.7.2-7.3,0-11-.5-3.5-11.5-13.2-4.1-13-11.5h-4v-4h-12v-7c-5.3-.3-10.7-.7-16-1v-4c-5.2-1.6-16.3,4.8-16-4-2.9.3-5.6,0-8-1Z"/>
      <path class="cls-217" d="M402.5,365.5h17c-.9,19.1,5.4,18.9-16,19.5-1,4.7-1.3,9.6-1,14.5h-1v-16h-16c5.1-1,10.5-1.3,16-1v-16h1v-1Z"/>
      <path class="cls-313" d="M402.5,366.5h16v16h-3c.9-4.9,1.3-9.9,1-15-4.3.8-8.6,1.1-13,1v14c-1-5.1-1.3-10.5-1-16Z"/>
      <path class="cls-216" d="M415.5,382.5c-4.1,1.2-8.1,1.2-12,0v-14c4.4.1,8.7-.2,13-1,.3,5.1,0,10.1-1,15Z"/>
      <path class="cls-193" d="M447.5,365.5h3v16h-17v18h-31c-.3-4.9,0-9.8,1-14.5,4.5-1.2,13.3,1.1,16-2.5,4.1.3,8.1,0,12-1,.7-5,1.4-10,2-15,4.3,2.2,9.7-.7,14-1Z"/>
      <path class="cls-170" d="M483.5,382.5c17.3.3,34.7-.6,52,1-.3,8.8,10.8,2.4,16,4v4c5.3.3,10.7.7,16,1v7h12v4h4c-.3,7.4,9.5,0,13,11.5,9.9,1.1,20,.2,30,.5v1c-26.6.4-52.5,1.6-79,0v16h-17v18c-9.6-.9-19.2-1.1-29,.5-.6,5.9-1.3,11.8-2,17.5v-18c2.3-1.7,5-2.4,8-2,.5-4.4-.5-8.4-3-12-.8,1.2-1.3,2.6-1.5,4-1.5-5.7-4.5-10.8-3.5-17h-4c.2-2.7,0-5.4-.5-8-2.5-1-4-2.8-4.5-5.5-1.3-.3-2.4-.8-3.5-1.5-12,5-25,6-37.5,8-16.4-.9-34.3,1.8-50-1,12.2.3,24.2,0,36-1,5.6.3,14.9-7.8,13-14,6,.2,12,0,18-.5,1-5.7,1.3-11.6,1-17.5h16Z"/>
      <path class="cls-337" d="M385.5,383.5h16c-.6,1.9,1.6,20.8-1.5,17-1.8.8-3.3,2-4.5,3.5h-6c-.9,2.7-1.3,5.6-1,8.5,2.6-.3,4.9,0,7,1h-8c0-10.2.5-20.4-2-30Z"/>
      <path class="cls-239" d="M627.5,382.5h15c0,.7.3,1,1,1v102c-2.3-32.4-.6-68.4-2-102-4.9.3-9.5,0-14-1Z"/>
      <path class="cls-5" d="M357.5,399.5h12v18c-10.2.1-15.6-8.5-12-18Z"/>
      <path class="cls-314" d="M625.5,398.5c1,5.5,1.3,11.1,1,17h-17c.7-5.3,1-10.6,1-16,5,0,10-.5,15-1Z"/>
      <path class="cls-94" d="M401.5,399.5c11.2.8,22.5,1.4,34,1v14c-12.5,1.1-25.2,1.3-38,1-1.5-3.1-5.8-3.2-9-3-.3-2.9,0-5.8,1-8.5h6c1.2-1.5,2.7-2.7,4.5-3.5,1.1,1.2,1.6.9,1.5-1Z"/>
      <path class="cls-359" d="M448.5,400.5c1.9,6.2-7.4,14.4-13,14v-14c4.1-.3,8.5-.3,13,0Z"/>
      <path class="cls-300" d="M386.5,388.5c1,8.1,1.3,16.5,1,25,3.2.6,8.4-1.7,10,2-4,.6-7-1.4-11-1v-26Z"/>
      <path class="cls-86" d="M626.5,381.5h1v1c4.5,1,9.1,1.3,14,1,1,11.3-3.4,21.3-2,33-3.9.3-7.8,0-11.5-1-.3.9-.8,1.6-1.5,2,.7-12.3-2.5-23.9,0-36Z"/>
      <path class="cls-25" d="M499.5,450.5c0-.7-.3-1-1-1,1.1-5.7,1.1-11.3,0-17-5.4,0-11,.4-16-1v-15h-33c12.5-2,25.5-3,37.5-8,1.1.7,2.2,1.2,3.5,1.5.5,2.7,2,4.5,4.5,5.5.5,2.6.7,5.3.5,8h4c-1,6.2,2,11.3,3.5,17,.2-1.4.7-2.8,1.5-4,2.5,3.6,3.5,7.6,3,12-3-.4-5.7.3-8,2Z"/>
      <path class="cls-105" d="M380.5,415.5c-1.3,8.3,6,9.7,4,20-8.4-5.1-19.4-2.3-29-3v-1h14v-15c3.6-.8,7.3-1.2,11-1Z"/>
      <path class="cls-375" d="M392.5,415.5h7c.7.9,1.7,1.2,3,1v17c-4.8-.3-9.4.8-14,2,.9-5.1,2.2-10.1,4-15-2.5-1.9-2.5-3.5,0-5Z"/>
      <path class="cls-344" d="M357.5,399.5c-3.6,9.5,1.8,18.1,12,18v14h-14c-.6-11.1,0-21.7,2-32Z"/>
      <path class="cls-281" d="M380.5,415.5h5c-.2,7.7.1,15.4,1,23-3.3-3.6-1.4-8.6-2.5-13-3.1-2.5-4.3-5.9-3.5-10Z"/>
      <path class="cls-350" d="M596.5,417.5c-15.8,1-31.8,1.3-48,1,.3,5.3,0,10.4-1,15.5-5.3-.3-10.6-.3-16,0,1,5.7,1.3,11.6,1,17.5h-1c.6-6.7-1.6-12.5-1-19h17v-16c16.3.6,32.7.9,49,1Z"/>
      <path class="cls-284" d="M596.5,417.5h29v32c-10-.2-20,.2-30,1-.6,4.6-1,9.3-1,14-.7-3.9-1.4-7.9-2-12-2.9-1-5.9-1.3-9-1v-3h-8v3c-13.8-1.9-9.8,23.5-9,32-3.7-10.4-3-22-3-33-10.7-.5-20.5,1.7-31,1,.3-5.9,0-11.8-1-17.5,5.4-.3,10.7-.3,16,0,1-5.1,1.3-10.2,1-15.5,16.2.3,32.2,0,48-1Z"/>
      <path class="cls-345" d="M658.5,415.5v16c4.8-.3,9.5.4,14,2-2.3,4.4,2.2,9.1,1,14-5.7-.2-11.3,0-17,.5-1.7,4.7-2.7,4.6-3-.5-12.8-.6-6.6-19.3-8-28h12c-.3-1.6,0-2.9,1-4Z"/>
      <path class="cls-117" d="M402.5,416.5h77c-23.9,2.7-49.5,0-74,1.5-1.9,4-1.7,9.1-3,13.5v-15Z"/>
      <path class="cls-276" d="M474.5,418.5c1.3,4.3,2.7,8.7,4,13,5.7-.2,11,1.7,17,1v1c-1.3-.2-2.3,0-3,1-4.4.3-8.5,1.3-12.5,3-1.4,4,2.1,7.7,1.5,11.5,4.3.6,8.7.6,13,.5v1h-28v17c-10,.9-20,1.2-30,1,.3-6.1,0-12.1-1-18-10.6-1-21.3-1.3-32-1,.2-9.3.5-18.7,1-28,5.1,0,10.1-.6,15-2,.5,3.8,3.2,7.8,1,11.5,6.3.5,12.7.7,19,.5v-4c9.9-.5,10.2-2.2,1-5,11-3.7,22.3-5,34-4Z"/>
      <path class="cls-282" d="M385.5,414.5c2.5-.1,5-.2,7,1-2.5,1.5-2.5,3.1,0,5-4,8.5-3.4,18.2-5,27-1.6-10.7-2.2-21.9-2-33Z"/>
      <path class="cls-215" d="M479.5,416.5h3v15h-4c-1.3-4.3-2.7-8.7-4-13,.7,0,1-.3,1-1,1.6.3,2.9,0,4-1Z"/>
      <path class="cls-81" d="M658.5,400.5h16v47h-1c1.2-5-3.3-9.6-1-14-4.5-1.6-9.2-2.3-14-2v-31Z"/>
      <path class="cls-259" d="M599.5,417.5c8.8-1,17.8-1.3,27-1v34c-3.4-.7-13.4,1.4-15-1h14v-32h-26Z"/>
      <path class="cls-16" d="M475.5,417.5c0,.7-.3,1-1,1-11.7-1-23,.3-34,4,9.2,2.8,8.9,4.5-1,5v4c-6.3.2-12.7,0-19-.5,2.2-3.7-.5-7.7-1-11.5-4.9,1.4-9.9,2.1-15,2-.2-1.3.2-2.5,1-3.5,23.3-.5,46.7-.7,70-.5Z"/>
      <path class="cls-195" d="M354.5,431.5c0,3,.4,3.4,1,1,47.4-2.2,25.4,7.6,29,51h-13v-36h-17c1.4-5.5-2.7-11.4,0-16Z"/>
      <path class="cls-361" d="M492.5,434.5c1.1-.1,2.1,0,3,.5-4.1,2.5.8,10-2,14.5-4,.2-8,0-12-.5.6-3.8-2.9-7.5-1.5-11.5,4-1.7,8.1-2.7,12.5-3Z"/>
      <path class="cls-343" d="M492.5,434.5c.7-.9,1.7-1.2,3-1,1.9,4.9,2.6,10.2,2,16h-4c2.8-4.6-2.1-11.9,2-14.5-.9-.5-1.9-.6-3-.5Z"/>
      <path class="cls-13" d="M495.5,433.5v-1h3c1.4,6,.8,12,0,18h-4v-1h3c.6-5.8,0-11.1-2-16Z"/>
      <path class="cls-1" d="M397.5,433.5c-.5.9-.8,1.9-1,3,1.3,1.5,2.3,3.2,3,5-1.2,1.8-1.8,3.8-2,6-3.4-.2-6.5.4-9.5,2-1.2-4.3,1.6-9.1.5-14,3-.8,6-1.4,9-2Z"/>
      <path class="cls-385" d="M643.5,383.5h14c-.5,12.3,2.6,24.2,0,36h-12c1.4,8.7-4.8,27.4,8,28,.3,5.1,1.3,5.2,3,.5,6.3-.6,12.7-.6,19-.5v1c-6.1-.6-11.8,0-17,2v32c-1.6.2-2.9-.3-4-1.5,1.9-6.9,2.6-14.1,2-21.5h-10c-1,8.3-1.8,16.6-2,25h-1v-101Z"/>
      <path class="cls-187" d="M641.5,394.5c-1,30.8,5.3,64.5-1.5,94-1.3-.5-2.8-.5-4.5,0v3h-4c.2-2,0-4-.5-6-1.4,2.6-2.6,2.6-3.5,0-3.3-.3-6.4-1.5-10-1.5,2.1-.2,4.1-.7,6-1.5-2.6-.8-5.3-1.3-8-1.5,2.7-.2,5.2-1,7.5-2.5,1,.8,2.2,1.2,3.5,1,.9-4.3,3-8,0-12,0-16.7,0-33.3,0-50,.7-.4,1.2-1.1,1.5-2,3.7,1,7.6,1.3,11.5,1-.6-7.7,0-15.1,2-22Z"/>
      <path class="cls-340" d="M676.5,465.5c-.7,0-1,.3-1,1-5-.3-10-.6-15-1v17h15v1h-16c0-11.1-.4-22.1,1-33,9.8,0,19.4-.5,29-1.5,1.9,4.9,2.6,10,2,15.5-5.2-.3-10.2,0-15,1Z"/>
      <path class="cls-241" d="M353.5,448.5c5.1,1,10.5,1.3,16,1v17c-2.5-1.7-.3-12.4-1-16-6.2-1.2-11.4.4-15.5,5-.5-2.4-1.3-2.6-2.5-.5.5.4.8.9,1,1.5-1.4.7-2.7,1.6-4,2.5l1,1c-1.1,1-2.5,1.7-4,2,2.4,1,2,1.6-1,2,3.2.2,6.2.7,9,1.5h-16v-17h17Z"/>
      <path class="cls-386" d="M403.5,451.5c4.5-1,9.1-1.3,14-1v17h-1v-16h-13Z"/>
      <path class="cls-96" d="M404.5,421.5c-.5,9.3-.8,18.7-1,28,10.7-.3,21.4,0,32,1,1.8,10.5.8,21.3,1,32,5.2-.3,10.2,0,15,1h-16c.2-11.3-1.7-21.8-1-33-10.2.4-21.1-1.1-31,1-.7,0-1-.3-1-1,0-9.8-.6-19.5,2-29Z"/>
      <path class="cls-141" d="M491.5,451.5v-1h7c.2,4.2-5.1,3.2-7,1Z"/>
      <path class="cls-149" d="M417.5,450.5h17v17c-5.9-.5-11.4.4-17,1v-18Z"/>
      <path class="cls-185" d="M482.5,450.5v15c-5.5.9-10.8,1.3-16,1v-16h16Z"/>
      <path class="cls-119" d="M626.5,452.5v15h-14c1.8-4.8,2.4-9.8,2-15h12Z"/>
      <path class="cls-53" d="M401.5,450.5h1c1.4,2.4,10.8.3,14,1v16h-14c.2-5.7,0-11.4-1-17Z"/>
      <path class="cls-161" d="M611.5,449.5c0,.7.3,1,1,1,.3,5.1,0,10.1-1,15-5.5-.3-12.3,4.2-17,0,0-5,.3-10,1-15,5.3-.3,10.7-.7,16-1Z"/>
      <path class="cls-201" d="M531.5,451.5h15v15c-4.9-.3-9.8,0-14.5,1-.5-5.3-.7-10.7-.5-16Z"/>
      <path class="cls-258" d="M563.5,466.5h-17v-15c5.5-1,11.1-1.3,17-1v16Z"/>
      <path class="cls-204" d="M397.5,433.5h5v17c-4.7-.7-9.2-1.5-14,0,.6,11.4,0,22.4-2,33v-40c1.8,1.5.3,4.2,1.5,6,3-1.6,6.1-2.2,9.5-2,.2-2.2.8-4.2,2-6-.7-1.8-1.7-3.5-3-5,.2-1.1.5-2.1,1-3Z"/>
      <path class="cls-180" d="M498.5,449.5c2.5,2,.3,14,1,18h-17c.3-5.3,1.6-10.4,1-16,6.8-1.8,15.5,6.2,15-2Z"/>
      <path class="cls-120" d="M612.5,450.5h14v2h-12c.4,5.2-.2,10.2-2,15h-1c.3-5.7,1.6-11.2,1-17Z"/>
      <path class="cls-310" d="M353.5,448.5h17v18h-1v-17c-5.5.3-10.9,0-16-1Z"/>
      <path class="cls-221" d="M529.5,450.5h1v31c-6.6,4.6-14.5-2.9-21.5,2-2.3-1.6-4.8-2.3-7.5-2,.7-6-2.8-26.5,6-26-.2-1.3.2-2.5,1-3.5,7-.4,14-.9,21-1.5Z"/>
      <path class="cls-325" d="M594.5,464.5v1c-1.2-.2-2.2.5-3,1.5-8.7.5-17.3.7-26,.5.8-6.6.3-17.7,10-16v-3h8v3c3.1-.3,6.1,0,9,1,.6,4.1,1.3,8.1,2,12Z"/>
      <path class="cls-39" d="M658.5,482.5c-4.5,1-9.1,1.3-14,1,.4-8,1-16,2-24h10c.6,7.4,0,14.6-2,21.5,1.1,1.2,2.4,1.7,4,1.5Z"/>
      <path class="cls-384" d="M482.5,450.5h9v1h-8c.3,4.9,0,9.5-1,14v-15Z"/>
      <path class="cls-277" d="M368.5,465.5c-8.6.3-16.5,0-25-1.5,3-.4,3.4-1,1-2,1.5-.3,2.9-1,4-2l-1-1c1.3-.9,2.6-1.8,4-2.5-.2-.6-.5-1.1-1-1.5,1.2-2.1,2-1.9,2.5.5,4.1-4.6,9.3-6.2,15.5-5v15Z"/>
      <path class="cls-184" d="M386.5,439.5c-.9,14.6,2.2,29.9-2,44-.3-14.9.4-29.5,2-44Z"/>
      <path class="cls-188" d="M353.5,435.5c1,3.8,1.3,7.8,1,12h17v36c-2-11.3-.6-23.5-1-35h-17v-13Z"/>
      <path class="cls-28" d="M530.5,439.5c2.2,8.9.1,18.8,1.5,28,4.7-1,9.6-1.3,14.5-1v18h-16v-45Z"/>
      <path class="cls-75" d="M675.5,466.5v16h-15v-17c5,.4,10,.7,15,1Z"/>
      <path class="cls-36" d="M547.5,466.5h16v18c-17.1,1.3-16.4-2.7-16-18Z"/>
      <path class="cls-213" d="M353.5,465.5h15c0,.7.3,1,1,1v17h-16v-18Z"/>
      <path class="cls-171" d="M593.5,465.5c0,5.7-.2,11.4-1,17h3c-9.5,1-19.2,1.3-29,1-.9-5.2-1.3-10.6-1-16,8.7.2,17.3,0,26-.5.5-.7,1.2-1.2,2-1.5Z"/>
      <path class="cls-52" d="M676.5,465.5h14v22c-.7-1.2-1.3-2.6-2-4-3.6,4-8.6-.3-13,0,.7-3.9-1.5-16.2,1-18Z"/>
      <path class="cls-115" d="M611.5,467.5h15c3,4,.9,7.7,0,12-1.3.2-2.5-.2-3.5-1-2.3,1.5-4.8,2.3-7.5,2.5,2.7.2,5.4.7,8,1.5-1.9.8-3.9,1.3-6,1.5,3.2.2,6.2.7,9,1.5h-16c1-5.9,1.3-11.9,1-18Z"/>
      <path class="cls-358" d="M434.5,467.5c1,5.1,1.3,10.5,1,16h16c5.5,1.5,13.3-2.7,17,.5-11.3,1-22.7.3-34,.5v-17Z"/>
      <path class="cls-91" d="M336.5,465.5h17v1h-16v34c-2.2-11.3-.5-23.5-1-35Z"/>
      <path class="cls-27" d="M402.5,467.5h15c0,5.7.5,11.3,1,17-5-.2-10,0-15,.5-1,4.7-1.3,9.6-1,14.5h-1c.2-2.4,0-4.7-.5-7-1.7-.9-3.5-1.2-5.5-1,.3-3-1.1-4.8-4-5.5l1-1c-4.7-4.5,1.5-12.4,4-17,2-.5,4-.7,6-.5Z"/>
      <path class="cls-95" d="M482.5,465.5v19c-9.9,1.7-20.3,2.2-30,0,5.3.2,10.7,0,16-.5-1-1.8-3.4-.9-4-3,.9-4.8,1.8-9.6,2-14.5,5.2.3,10.5,0,16-1Z"/>
      <path class="cls-77" d="M593.5,465.5c5.2,3.2,11.2.8,17,0,.4,6.8,0,13.5-1.5,20-10.3,4.7-22.9.2-33.5-1,7,.3,14,0,21-1-.1-.6-.5-.9-1-1-.5-5.9-2-11.3-2-17Z"/>
      <path class="cls-355" d="M563.5,467.5c.4,5.6,1.4,10.9,3,16,9.8.3,19.5,0,29-1,.5,0,.9.4,1,1-10.9,1.7-22,.8-33,1v-17Z"/>
      <path class="cls-89" d="M593.5,468.5c.8,4.5,1.4,9.2,2,14h-3c.6-4.6,1-9.3,1-14Z"/>
      <path class="cls-167" d="M466.5,467.5c.7,3.5-4.4,14.6,0,15-9.8,2.7-19.8-.6-30,0v-14c10,.2,20-.1,30-1Z"/>
      <path class="cls-162" d="M482.5,467.5h2v17h14v-17h1v18c-5.9.3-11.5,0-17-1v-17Z"/>
      <path class="cls-321" d="M484.5,467.5h14v17h-14v-17Z"/>
      <path class="cls-289" d="M369.5,466.5h1c-.3,5.9,0,11.5,1,17h13c.7-2.3,1.3-4.7,2-7v8h-33v-1h16v-17Z"/>
      <path class="cls-182" d="M693.5,495.5c.1.7,0,1.4-.5,2-.3-.9-.8-1.6-1.5-2,.3-10.2,0-20.2-1-30h-14c4.8-1,9.8-1.3,15-1,.6-5.5,0-10.6-2-15.5-9.6,1-19.2,1.5-29,1.5.3,2.2,0,4.2-1,6,.3-2.2,0-4.2-1-6,10.8-3.3,23.5-2.5,35-3v48Z"/>
      <path class="cls-169" d="M658.5,450.5c2.6,10.4.2,22.2,1,33h16c.4,6.2,5.9,18.2-5,16,.2,1.2-.1,2.2-1,3-2.5-15.2-7.6-18.2-10-1v-17h-15v-1c4.9.3,9.5,0,14-1v-32Z"/>
      <path class="cls-9" d="M418.5,468.5c5.1-1,10.5-1.3,16-1v17h18c5.5.6,11.5,2.9,17,1-2.2,5-2.6,10.1-1,15.5-17.8-.8-35.7,2.9-53,.5,1.7-10.5,6.1-22.2,3-33Z"/>
      <path class="cls-82" d="M401.5,450.5c.9,5.6,1.2,11.3,1,17-2-.2-4,0-6,.5-2.5,4.6-8.7,12.5-4,17l-1,1c2.9.7,4.3,2.5,4,5.5,2-.2,3.8,0,5.5,1,.9,3.6.4,7.3.5,11-4.7,0-9.4-.3-14-1-2.8-17.6,2.5-34,1-52,4.4-1.2,8.7-1.2,13,0Z"/>
      <path class="cls-268" d="M417.5,468.5h1c3.1,10.8-1.3,22.5-3,33-2.5.2-4.6-.5-6.5-2-1.9.6-2.9,1.9-3,4-1.4-5.6-1.9-11.2-1.5-17,19.8,1.3,12.7-2.6,13-18Z"/>
      <path class="cls-32" d="M563.5,485.5v-1c11.9-.8,23,2.3,35,3,0,4.4-2,7.4-6,9,1.8,1.3,3.8,2.3,6,3-11.3,1-22.6,1.3-34,1,.3-5.2,0-10.2-1-15Z"/>
      <path class="cls-23" d="M369.5,484.5h16v17c-5.5-.4-10.9.2-16,2v-19Z"/>
      <path class="cls-237" d="M610.5,465.5h1c0,11.9-.5,23.8-2,35.5-15.7.5-31.3.7-47,.5,0-5.4.4-10.7,1-16,1,4.8,1.3,9.8,1,15,11.4.3,22.7,0,34-1-2.2-.7-4.2-1.7-6-3,4-1.6,6-4.6,6-9,3.8.4,7.3-.2,10.5-2,1.4-6.5,1.9-13.2,1.5-20Z"/>
      <path class="cls-165" d="M675.5,483.5c4.4-.3,9.4,4,13,0,3.2,4.9,1.7,10.5,2,16h-15c4.2-3.8-.1-11,0-16Z"/>
      <path class="cls-287" d="M643.5,484.5h16v17h-16v-17Z"/>
      <path class="cls-317" d="M353.5,484.5h16v19c-.8-5.5-1.3-11.2-1.5-17-3.7-1.1-7.6-1.3-11.5-.5-1,10.4-1.3,20.9-1,31.5h14v1h-16v-34Z"/>
      <path class="cls-338" d="M353.5,466.5v34h-16v-34h16Z"/>
      <path class="cls-256" d="M338.5,467.5h13c-1.2,9-1.3,18-.5,27-2.6,1.6-5,1.2-7-1,.3-3.5,0-7.2-1-11-6.1,15-4.2-10.8-4.5-15Z"/>
      <path class="cls-110" d="M369.5,503.5v13c-5-.3-9.1,1.7-14,1-.3-10.6,0-21.1,1-31.5,3.9-.8,7.8-.6,11.5.5.2,5.8.7,11.5,1.5,17Z"/>
      <path class="cls-225" d="M546.5,466.5h1c-.4,15.4-1.1,19.3,16,18-.4,5.7-1,11.3-1,17-5.2.5-10.4-.1-15.5-2-1-11-.3-22-.5-33Z"/>
      <path class="cls-295" d="M642.5,484.5c0,.7.3,1,1,1v34c-5.4,0-10.7-.4-16-1v-33c.9,2.6,2.1,2.6,3.5,0,.5,2,.7,4,.5,6h4v-3c1.7-.5,3.2-.5,4.5,0,.6-1.6,1.4-2.9,2.5-4Z"/>
      <path class="cls-298" d="M482.5,535.5c1.9,11.5.7,23.4,1,35h16v1h-16v12c1.9-.2,3.4.5,4.5,2,5.5-3,10.2,2.7,15.5,3.5-.7.3-1.3.7-2,1,1.7,1.4,2.4,3.2,2,5.5h-4v4c-2.2,0-4.2-.7-6-2-1.8,1.3-3.8,1.9-6,2v8c1.6-.3,2.9,0,4,1v1h-25c.4,5.8,2.6,12.9-.5,18-.6-2.2-1.8-2.4-3.5-.5.7.3,1.3.7,2,1-6.1,1.6-.9,6.5,3,5.5v6h4v8h8v16h-3v4h7v4h4v-8h8v8h4v-4h4v-4h8v-16h16v16h-8v4h8v4h16c.6,5.9-2,8.7-8,8.5,1.9.2,3.5.7,5,1.5-23,.4-46-.1-69-1.5,4.8-3.9-2.8-11.5-3.5-16.5-5.6,0-9.3-2.6-11-8-1.3,1.4-1.8,3.1-1.5,5-1.6-.1-2.8.5-3.5,2-.2-4.9-.7-9.5-1.5-14-5.1-1-10.5-1.3-16-1v-18h-16v-1c15.1-2,11-4.6,15-17-.8-11.5,3.3-13.5,2-28h4v-8h4c-.4-3.9-2.3-9.7,4-9v-3c-2,.2-4,0-6-.5,1.5-1.9,2.2-4.1,2-6.5h4v-21h-8v-12h-4v-4h-4v-10h-4v-4c11.1-1.5,24.8-2.5,41-3,6.2-1.4,13.8,3.8,18-2.5-2.8-2.9-2.1-4.4,2-4.5v-9c3.6-.3,7.1,0,10.5,1-.4,15.6-.5,31.3-.5,47-5.5-.3-10.9,0-16,1Z"/>
      <path class="cls-175" d="M418.5,484.5c-2.6,3.7-9.8,1.4-14,2-.4,5.8.1,11.4,1.5,17,.1-2.1,1.1-3.4,3-4,4.1,2.9,9.2,1.8,13.5,4.5-.9.5-1.9.6-3,.5.2,4,0,8-.5,12-4.9,3.4-10.8,1.6-16.5,2,.4-11.1-1.1-22.6,1-33.5,5-.5,10-.7,15-.5Z"/>
      <path class="cls-126" d="M337.5,500.5h16v17h-16v-17Z"/>
      <path class="cls-181" d="M658.5,501.5h1v15c-4.6-.7-9.3-1.1-14-1v-13c4.5.3,8.9,0,13-1Z"/>
      <path class="cls-223" d="M529.5,450.5c-7,.6-14,1.1-21,1.5-.8,1-1.2,2.2-1,3.5-8.8-.5-5.3,20-6,26,2.7-.3,5.2.4,7.5,2,7-4.9,14.9,2.6,21.5-2,1,23.4,1.5,46.8,0,70-.2-19,.6-38-.5-57-.4.5-.9.8-1.5,1-.8-1.1-1.4-2.3-2-3.5-4.4.2-15.3-3.3-15,3.5h-11c-.8,13.3-1.2,26.6-1,40h-17c5.1-1,10.5-1.3,16-1,0-15.7.1-31.4.5-47-3.4-1-6.9-1.3-10.5-1v9c-4.1.1-4.8,1.6-2,4.5-4.2,6.3-11.8,1.1-18,2.5-15,0-30,0-45,0,14.8-.8,29.8-1.3,45-1.5-1.6-5.4-1.2-10.5,1-15.5,10.3-.7,19.5-.1,30,0-.4-11.6.4-22.9,2-34.5,9.5-1.5,18.8-1.6,28-.5Z"/>
      <path class="cls-265" d="M530.5,519.5c-1.1-2.5-2-5.1-2.5-8-.5,1.3-.7,2.6-.5,4h-8c1.4-5.6-9.4-5.6-8,0-3.7,1.3-7.3,2.7-11,4,.3,5.5,0,10.9-1,16-.2-13.4.2-26.7,1-40h11c-.3-6.8,10.6-3.3,15-3.5.6,1.2,1.2,2.4,2,3.5.6-.2,1.1-.5,1.5-1,.5,8.3.7,16.7.5,25Z"/>
      <path class="cls-247" d="M610.5,485.5h17v33h-16v34h-17c0-.4-.1-.8-.5-1-.3.7-.7,1.3-1,2-1.4-1.7-3.2-2.4-5.5-2v-8c1.3.2,2.5-.2,3.5-1,0-11.8.8-23.4,2.5-35,3.5.1,5.5-1.5,6-5-12.2.3-24.2,0-36-1,15.3.2,30.7,0,46-.5,1-5.1,1.3-10.2,1-15.5Z"/>
      <path class="cls-199" d="M369.5,517.5h-7c2.1-1,4.4-1.3,7-1v-12c5,0,9.8-.7,14.5-2,.5,5,.7,10,.5,15h-15Z"/>
      <path class="cls-164" d="M690.5,465.5c1.3,11.4,1.1,23.3,1,35h-17c-.3,6.1,0,12.1,1,18-5.4.2-10.7,0-16-1v-1h14v-17h17v-34Z"/>
      <path class="cls-320" d="M673.5,499.5v17h-14c-.2-8.6-.2-16.6,2-25,6.6-5.6,6.4,7.2,8,11,.9-.8,1.2-1.8,1-3h3Z"/>
      <path class="cls-293" d="M691.5,500.5v18h-16c-1-5.9-1.3-11.9-1-18h17Z"/>
      <path class="cls-50" d="M676.5,501.5h14v15h-14v-15Z"/>
      <path class="cls-370" d="M419.5,502.5h49c-16.2.5-29.9,1.5-41,3v4h4v10h4v4h4v12h8v21h-4c.2,2.4-.5,4.6-2,6.5,2,.5,4,.7,6,.5v3c-6.3-.7-4.4,5.1-4,9h-4v8h-4c.4,8.1,0,13.4-1,16v-48h-16c.2-11.4-.4-20.9,0-33h-3c1-.7,2.2-1.4,3.5-2,.5-4,.7-8,.5-12,1.1.1,2.1,0,3-.5-1.2-.2-2.2-.7-3-1.5Z"/>
      <path class="cls-360" d="M385.5,484.5h1c0,6,.4,12,1,18,4.6.7,9.3,1.1,14,1v-4h1c-.4,10.9,1.1,22.4-1,33v-13h-15c.4-12-1.7-23.1-1-35Z"/>
      <path class="cls-24" d="M530.5,519.5v33h-47c.2-5.7,0-11.4-1-17h17c1-5.1,1.3-10.5,1-16,3.7-1.3,7.3-2.7,11-4-1.4-5.6,9.4-5.6,8,0h8c-.2-1.4,0-2.7.5-4,.5,2.9,1.4,5.5,2.5,8Z"/>
      <path class="cls-339" d="M385.5,501.5v18c-5.5.5-10.7-.4-16-1v-1h15c.2-5,0-10-.5-15-4.7,1.3-9.5,1.9-14.5,2v-1c5.1-1.8,10.5-2.4,16-2Z"/>
      <path class="cls-315" d="M530.5,484.5h16c-.2,5,0,10,.5,15,17.2,4.1,34.7,2.6,52.5,3-.5,3.5-2.5,5.1-6,5-1.7,11.6-2.5,23.2-2.5,35-1,.8-2.2,1.2-3.5,1v8c2.3-.4,4.1.3,5.5,2,.3-.7.7-1.3,1-2,3.8,15.4-1,31.8.5,48-3.5,2-1.5,8.4-2,12-5.7-.2-11.3,0-17,.5-3.1,1.5-6,3.6-9.5,3.5,1-2.1.7-4.1-1-6-.2,6.1-.7,12.1-1.5,18-5.8.5-11.5,1.6-17,3.5,3.3.8,6.4.6,9.5-.5.8.6,1.6,1.1,2.5,1.5-1.6.5-3.3.7-5,.5v7h-10v4h4v4h8v4h10v4h4v4c-2.1,1.1-9.9-1.4-7,2.5,5.7.5,11.3.7,17,.5v1c-5.6,1-11.2,1.3-17,1v17c-9.1-.4-18.2,1.1-27-1.5,6,.2,8.6-2.6,8-8.5h-16v-4h-8v-4h8v-16h-16v16h-8v4h-4v4h-4v-8h-8v8h-4v-4h-7v-4h3v-16h-8v-8h-4v-6c-3.9,1-9.1-3.9-3-5.5-.7-.3-1.3-.7-2-1,1.7-1.9,2.9-1.7,3.5.5.4-.2.6-.6.5-1h96v-17h-71v-1c24,.2,48,0,72-.5-2.1,0-3.8-.9-5-2.5.8-1.9,1.2-3.9,1-6h-8v-8c-4.3.8-7.6-.6-10-4,1.6.2,3.1-.1,4.5-1,1.1-11.3.2-22.7.5-34h-16c1.2-22.6,1.4-45.2,0-68Z"/>
      <path class="cls-108" d="M385.5,501.5c1,5.8,1.3,11.8,1,18,3.3,0,10.9-.9,8,4.5,2.4,3.4,2.6,6.9.5,10.5-2.6.4-5,1.4-7,3-2.5-4.3-11.9-1.1-16.5-2-1-5.6-1.3-11.2-1-17,4.9.9,9.9,1.3,15,1v-18Z"/>
      <path class="cls-209" d="M627.5,518.5c5.3.6,10.6.9,16,1,0,10.8,0,21.5,0,32-1.5,0-2.7-.7-3.5-2-1,4.8-5.3,1.8-8.5,1.5-5.4-10-3.8-21.6-4-32.5Z"/>
      <path class="cls-283" d="M659.5,517.5c5.3.9,10.6,1.2,16,1v18c-5.6-1-11.2-1.3-17-1,.7-4-1.5-16,1-18Z"/>
      <path class="cls-34" d="M643.5,501.5h15c-4.1,1-8.5,1.3-13,1v13c4.7,0,9.4.3,14,1v1c-2.7,2.5-2.6,8.1-4,12-14.5,1.8-11.6-18.5-12-28Z"/>
      <path class="cls-381" d="M353.5,518.5h17c-.3,5.8,0,11.4,1,17h-18v-17Z"/>
      <path class="cls-55" d="M402.5,518.5h16c-.2,6.6-.2,12.6,0,18-5.5-1-11.1-1.3-17-1,0-5.7,1.7-11,1-17Z"/>
      <path class="cls-334" d="M627.5,518.5v17c-.7,0-1,.3-1,1-5-.6-10-1.3-15-2v-16h16Z"/>
      <path class="cls-264" d="M643.5,516.5c1.5,6.4,3.5,15,12,13,.8-3.8,1.8-7.5,3-11v17c5.8-.3,11.4,0,17,1v17c-10.7,0-21.3-.4-32-1,0-11.8,0-23.9,0-36Z"/>
      <path class="cls-166" d="M353.5,535.5h32c-.2,5.7.1,11.4,1,17-11.3-.6-22.1.7-33,1v-18Z"/>
      <path class="cls-316" d="M401.5,535.5c5.9-.3,11.5,0,17,1,0,6.4-1.8,12.4-2.5,19-.5-1.3-.7-2.6-.5-4-18-2.7-8.3,21.9-13,32-.3-14.9,0-29.7,1-44.5-.4-1.4-1-2.6-2-3.5Z"/>
      <path class="cls-297" d="M418.5,539.5v12h16c0,20.1.3,39.9-1,60-3.9.7-7.9.7-12,0,.2-1.2-.1-2.2-1-3-6.3,1-12.6,1.3-19,1-1-14.2,1.5-27.1,3-41-1.4-7.9,0-19.6,11-17-.2,1.4,0,2.7.5,4,.8-5.5,1.6-10.8,2.5-16Z"/>
      <path class="cls-214" d="M353.5,534.5v19h32v57h16v19c5.7.3,11.4-.5,17-1v54h-1c-1-17.2-1.3-34.5-1-52h-16v-19c-5.6.6-11.1.6-16.5,0,.4-19,.6-38,.5-57-10.6.7-21.8-1.5-32,1-.3-5.7-3.2-17.2,1-21Z"/>
      <path class="cls-93" d="M483.5,552.5h63v18h-63v-18Z"/>
      <path class="cls-66" d="M531.5,554.5h13c-.3,4.5-.3,9.2,0,14-4.4-.3-15.3,1.1-17-1,.2-2.9-.2-5.7-1-8.5,1.5-1.7,3.2-3.2,5-4.5Z"/>
      <path class="cls-236" d="M531.5,554.5c-1.8,1.3-3.5,2.8-5,4.5.8,2.8,1.2,5.6,1,8.5,1.2,1.1,4.5,1.5,10,1-17.2,1-34.5,1.3-52,1v-15h46Z"/>
      <path class="cls-227" d="M611.5,534.5c5,.7,10,1.4,15,2v64c-.8-8.2-1.3-16.5-1.5-25-1,2.4-1.6,2-2-1-3.7,1-7.6,1.3-11.5,1v4c-4.8.9-9.5,2.3-14,4,.2-3.3,0-6.7-.5-10-.3,7.3-.7,14.7-1,22-1.3-14.3.6-28.8-1.5-43h17v-18Z"/>
      <path class="cls-291" d="M357.5,553.5c9.5-1,19.2-1.3,29-1,.3,13.2,0,26.2-1,39v-38h-28Z"/>
      <path class="cls-62" d="M499.5,571.5v16c-3.5-1.6-7.7-4.3-11.5-2-1.1-1.5-2.6-2.2-4.5-2v-12h16Z"/>
      <path class="cls-262" d="M499.5,570.5h47c-.4,4.6,0,10.7-3,14.5-14.9,1-29.3,2.6-44,2.5v-17Z"/>
      <path class="cls-156" d="M386.5,552.5c4.7,15.8.6,38.4,1,56h14v1c-.7,0-1,.3-1,1h-15c-.5-19.4,1.7-38.4,1-58Z"/>
      <path class="cls-87" d="M546.5,574.5c.2,4,0,8-.5,12-12.3,2.6-25.8.2-38.5,1,11.9-.7,23.9-1.5,36-2.5,2.9-2.5,1.5-7.3,3-10.5Z"/>
      <path class="cls-329" d="M627.5,535.5c.2,5.5,1.5,10.7,4,15.5,3.2.3,7.5,3.3,8.5-1.5.8,1.3,2,2,3.5,2v1c-3.7,16.9-1.4,37.6-2,56h-14c-2.7-23.7-.2-48.1-1-72,0-.7.3-1,1-1Z"/>
      <path class="cls-70" d="M499.5,587.5h42c2.4,3.4,5.7,4.8,10,4v8h8c.2,2.1-.2,4.1-1,6,1.2,1.6,2.9,2.4,5,2.5-25.2-.1-51.2,2.1-76-.5v-8c2.2,0,4.2-.7,6-2,1.8,1.3,3.8,1.9,6,2v-4h4c.4-2.3-.3-4.1-2-5.5.7-.3,1.3-.7,2-1-1.6-.2-2.9-.7-4-1.5Z"/>
      <path class="cls-349" d="M642.5,553.5v56h-15v-1h14c-.3-18.5,0-36.8,1-55Z"/>
      <path class="cls-288" d="M393.5,519.5h8v16c1,.9,1.6,2.1,2,3.5-1.1,23.3-1.6,46.1-2,69.5h-14c-.4-17.6,3.7-40.3-1-56-.9-5.6-1.2-11.3-1-17,1.2,0,2.1.7,2.5,2,2-1.6,4.4-2.6,7-3,2.1-3.6,1.9-7.1-.5-10.5,1.1-1.7.7-3.2-1-4.5Z"/>
      <path class="cls-303" d="M595.5,567.5c-.2,9.3,0,18.7.5,28,.3-7.3.7-14.7,1-22,.5,3.3.7,6.7.5,10,4.5-1.7,9.2-3.1,14-4v-4c3.9.3,7.8,0,11.5-1,.4,3,1,3.4,2,1,.4,11.6.7,22.9,2.5,34-1.7,2.5-12.4.3-16,1v12h-1c-.5-2.3-.8-4.6-1-7-4.9-2.1-9.9-4.1-15-6,0-14-.5-28.3,1-42Z"/>
      <path class="cls-18" d="M322.5,625.5v3h-16v-17h16v14Z"/>
      <path class="cls-323" d="M706.5,611.5h17v18c-5.6-.6-11.3-1-17-1v-17Z"/>
      <path class="cls-178" d="M401.5,610.5h17c-.7,6-1.1,12-1,18-5.3.8-10.6,1.2-16,1v-19Z"/>
      <path class="cls-121" d="M530.5,610.5c2.8,1,5.8,1.3,9,1-.2,2.7.1,5.4,1,8,4.2,1.3,7.9,3.3,11,6-27.7,0-55.9,1-83-2v-13h62Z"/>
      <path class="cls-179" d="M530.5,610.5h31v15c-9.6,1.5-12.6-2.9-21-6-.9-2.6-1.2-5.3-1-8-3.2.3-6.2,0-9-1Z"/>
      <path class="cls-97" d="M625.5,610.5v18c-4.9-.5-9.4.4-14,1v-19h14Z"/>
      <path class="cls-4" d="M594.5,609.5c5.1,1.9,10.1,3.9,15,6,.3,4,1.3,7.9,1,12-4,.2-8,0-12-.5.9-2.3-.1-3.5-3-3.5-.6-4.7-1-9.4-1-14Z"/>
      <path class="cls-132" d="M433.5,611.5c-3.8,12.9-.5,15.5-16,17,0-6,.3-12,1-18h-18c0-.7.3-1,1-1,6.4.3,12.7,0,19-1,.9.8,1.2,1.8,1,3,4.1.7,8.1.7,12,0Z"/>
      <path class="cls-246" d="M625.5,610.5h1v19h-14c4.1-1,8.5-1.3,13-1v-18Z"/>
      <path class="cls-353" d="M225.5,611.5h14c1,5.1,1.3,10.5,1,16h-16c-.3-5.5,0-10.9,1-16Z"/>
      <path class="cls-64" d="M467.5,623.5c21,1.8,42.3,2.8,64,2v1h-65c.6-.9.9-1.9,1-3Z"/>
      <path class="cls-123" d="M491.5,609.5h71v17h-31v-1h30v-15h-93v13h-1c0-4.7-.3-9.4-1-14h25Z"/>
      <path class="cls-253" d="M419.5,629.5h15v18c5.5-.3,10.9,0,16,1v15h-1v-15c-25.2.4-13.1,1.9-17-18-4.3.9-8.6,1.3-13,1v-2Z"/>
      <path class="cls-107" d="M594.5,599.5c0,8.1-.2,15.9,1,24,2.9,0,3.9,1.2,3,3.5,4,.5,8,.7,12,.5v-5h1v7h-16v18h-16v15c-5.7.2-11.3,0-17-.5-2.9-3.9,4.9-1.4,7-2.5v-4h-4v-4h-10v-4h-8v-4h-4v-4h10v-7c1.7.2,3.4,0,5-.5-.9-.4-1.8-.9-2.5-1.5-3.1,1.1-6.2,1.3-9.5.5,5.5-1.9,11.2-3,17-3.5.8-5.9,1.3-11.9,1.5-18,1.7,1.9,2,3.9,1,6,3.5,0,6.3-2,9.5-3.5,5.7-.5,11.3-.7,17-.5.5-3.6-1.5-10,2-12Z"/>
      <path class="cls-357" d="M610.5,629.5c-4.5,1-9.1,1.3-14,1,.3,5.5,0,10.9-1,16v-17h15Z"/>
      <path class="cls-374" d="M610.5,629.5h1v18h-16c.6-5.6,1.5-11.1,1-17,4.9.3,9.5,0,14-1Z"/>
      <path class="cls-65" d="M432.5,647.5h-13v-16c4.4.3,8.7,0,13-1,1.3,5.8,1.3,11.5,0,17Z"/>
      <path class="cls-63" d="M271.5,646.5h17v17h-17v-17Z"/>
      <path class="cls-163" d="M418.5,629.5h1v18h13c.3.8,1,1.2,2,1,.2,4.4-.8,8.7-3,13-4.4.7-8.7,1.4-13,2v-34Z"/>
      <path class="cls-183" d="M757.5,646.5h25c-.3,5.7-.6,11.3-1,17h-24v-17Z"/>
      <path class="cls-219" d="M596.5,647.5h15c-.6,7.1,1.9,14.8-2.5,21-.3-1.6-.8-3.1-1.5-4.5-3.7-.5-7.3-.7-11-.5v-16Z"/>
      <path class="cls-368" d="M595.5,647.5v16h-16v-16h16Z"/>
      <path class="cls-377" d="M434.5,648.5h15v15h-14v18c4.9-.3,9.5,0,14,1h-15v-18c-5.6-.5-10.8.4-16,1v-2c4.3-.6,8.6-1.3,13-2,2.2-4.3,3.2-8.6,3-13Z"/>
      <path class="cls-189" d="M595.5,647.5h1v16c3.7-.2,7.3,0,11,.5.7,1.4,1.2,2.9,1.5,4.5,1-1.7,1.8-3.3,2.5-5v19c-10.5-.8-21.1-1.4-32-1,4.8-.7,9.8-1.3,15-2,1.4-3.1,1.2-6.1-.5-9-.4.5-.9.8-1.5,1-6.9-5-16.9-2.2-25-4-1.4,5.2-2.4,10.5-3,16-1.9.8-3.2,2.1-4,4-3.4-1.8-7.1-2.8-11-3,.3,1.9,0,3.6-1,5,.2-2.5-.1-4.8-1-7h16c.5-6.3-1.6-11.8-1-18,11.1.3,21.9-1.6,33-1v-16Z"/>
      <path class="cls-378" d="M450.5,648.5c.8,4.5,1.3,9.1,1.5,14,.7-1.5,1.9-2.1,3.5-2-.3-1.9.2-3.6,1.5-5,1.7,5.4,5.4,8,11,8,.7,5,8.3,12.6,3.5,16.5,25.3,1.6,50.6,1.8,76,1.5v1h-81v-18h-16v-16Z"/>
      <path class="cls-17" d="M419.5,665.5h14v16h-14v-16Z"/>
      <path class="cls-61" d="M419.5,665.5c4.8-1,9.8-1.3,15-1v18h-1v-17h-14Z"/>
      <path class="cls-348" d="M418.5,665.5h1v16h14v1h-15v-17Z"/>
      <path class="cls-124" d="M449.5,663.5h1v1c4.8,1,9.8,1.3,15,1v18h17c.1,5.4-.2,10.7-1,16,1.2,1.1,4.5,1.5,10,1-1.4,3.8,3.3,7.5,1,10.5,2.3.3,4.7.7,7,1-2.7,1-5.4,2.1-8,3.5,19.3,1.2,38.7,1.3,58,.5-2.2-1-4.5-1.7-7-2,3.1-1.4,6.7-4.8,10-2.5,1.3-3.7,1.3-7.3,0-11-1.5-.6-3.2-.6-5,0,.7-5.4,1.6-10.5,2-16,3.9.2,7.6,1.2,11,3,.8-1.9,2.1-3.2,4-4,.6-5.5,1.6-10.8,3-16,8.1,1.8,18.1-1,25,4,.6-.2,1.1-.5,1.5-1,1.7,2.9,1.9,5.9.5,9-20.3,2.3-16.7.2-17,20h-16v18h-94v-18h-16c.3-5.9,0-11.5-1-17-4.9-.6-9.7-1.5-15-1v-18h14Z"/>
      <path class="cls-366" d="M562.5,672.5c1,3.1,1.3,6.5,1,10h-16v-1h15v-9Z"/>
      <path class="cls-142" d="M434.5,682.5h16v18c-5.4,0-10.7.3-16,1v-19Z"/>
      <path class="cls-177" d="M483.5,682.5h62v15c-20.9-.3-41.7-.2-62,2v-17Z"/>
      <path class="cls-202" d="M607.5,682.5h4v36h-16c4.8-1,9.8-1.3,15-1v-34c-1.3.2-2.3,0-3-1Z"/>
      <path class="cls-100" d="M612.5,685.5v-1h14c-.3,5.9,0,11.5,1,17h16c0,4-.3,8-1,12h-1v-10c-5.8-.5-11.5.2-17,2,0-6.2,0-12.5,0-19-4.1.3-8.1,0-12-1Z"/>
      <path class="cls-40" d="M419.5,687.5c.9,1.1,1.3,2.4,1,4,2,.2,3.8,0,5.5-1,.4.9.9,1.8,1.5,2.5-2.5.8-2.7,2-.5,3.5,3,8.8-7.3,14.1-5.5,23h-2c1.2-10.7,1.2-21.3,0-32Z"/>
      <path class="cls-72" d="M419.5,682.5h15v19c.3,5.7-3.4,10.7-2.5,16,1.3.6,2.5,1.3,3.5,2h-14c-1.8-8.9,8.5-14.2,5.5-23-2.2-1.5-2-2.7.5-3.5-.6-.8-1.1-1.6-1.5-2.5-1.7.9-3.5,1.2-5.5,1,0-3.3-1.6-5.6-1-9Z"/>
      <path class="cls-362" d="M545.5,682.5h1v16h-53c17.2-1,34.5-1.3,52-1v-15Z"/>
      <path class="cls-394" d="M595.5,682.5v19h-17c1-6.2,1.3-12.6,1-19h16Z"/>
      <path class="cls-92" d="M546.5,682.5h1c1.8,5.3,1.3,11.6,0,17h-60c19.1-2.7,39.5-.1,59-1v-16Z"/>
      <path class="cls-131" d="M450.5,664.5h16v18h17v17h64v1c-20.8-1-46.2,1.9-66-1,.8-5.3,1.1-10.6,1-16h-17v-18c-5.2.3-10.2,0-15-1Z"/>
      <path class="cls-158" d="M579.5,681.5c10.5-.3,20.8,0,31,1h-31c.3,6.4,0,12.8-1,19-5.4.2-10.7-.2-16-1v18h-79v-1h78v-18h16c.7-4.9-1.8-15,2-18Z"/>
      <path class="cls-390" d="M491.5,700.5c20.2.2,40.9-.2,61,0,1.3,3.7,1.3,7.3,0,11-3.3-2.3-6.9,1.1-10,2.5,2.5.3,4.8,1,7,2-19.3.8-38.7.7-58-.5,2.6-1.4,5.3-2.5,8-3.5-2.3-.3-4.7-.7-7-1,2.3-3-2.4-6.7-1-10.5Z"/>
      <path class="cls-342" d="M595.5,682.5h12c.7.9,1.7,1.2,3,1v34c-5.2-.3-10.2,0-15,1-1,5.1-1.3,10.5-1,16-5.1.5-33.3-1.8-33,3-4.1-.6-6.1,1.4-6,6-4.9,1.3-9.9,1.8-15,1.5.8-.3,1.5-.8,2-1.5-1.4-1.9-3.1-3.6-5-5,3.3-1.4,6.7-2.4,10-3v-16h15c4.1,5.7,10.7,1.1,16,0v-18h17v-19Z"/>
      <path class="cls-371" d="M400.5,702.5c.2,2.7,0,5.4-.5,8-1.4.9-2.9,1.2-4.5,1v3c9.1.8-8.8,4.1-11,3,1.5-4.9,2.2-9.9,2-15h14Z"/>
      <path class="cls-387" d="M450.5,700.5v19c-1.3-1.5-2.2-1.1-2.5,1-4.3-1.4-8.4-1-12.5,1v-2c-1-.7-2.2-1.4-3.5-2-.9-5.3,2.8-10.3,2.5-16,5.3-.7,10.6-1,16-1Z"/>
      <path class="cls-260" d="M578.5,701.5v1h-14c.6,6.1,0,11.8-2,17h-15v7c-1-2.4-1.3-5.1-1-8h16v-18c5.3.8,10.6,1.2,16,1Z"/>
      <path class="cls-279" d="M450.5,701.5v-1h16v19c-.9-.7-1.2-1.7-1-3-4.3.2-8.7,0-13-.5-.6-4.9-1.3-9.8-2-14.5Z"/>
      <path class="cls-383" d="M578.5,702.5v17c-5.3,1.1-11.9,5.7-16,0,2-5.2,2.6-10.9,2-17h14Z"/>
      <path class="cls-135" d="M450.5,682.5c1,5.5,1.3,11.1,1,17h16v18h16v1h-17v-18h-16v-18Z"/>
      <path class="cls-244" d="M420.5,719.5h15v2c-5-.3-10-1.4-15-2Z"/>
      <path class="cls-84" d="M611.5,684.5h1v35c-4.8,2.2-10.8.5-16,1v16c-11.2-.5-22.3,0-33,2v-3h32v-17h16v-34Z"/>
      <path class="cls-292" d="M369.5,719.5h13c.5,1.4,1.5,2.1,3,2v15h-1c.3-4.7,0-9.4-1-14-4.2-.6-8.4-1.3-12.5-2-.5,5.3-.7,10.7-.5,16-1-5.5-1.3-11.1-1-17Z"/>
      <path class="cls-152" d="M419.5,719.5c5,.3,10,1.4,15,2v14h-1v-14h-14v-2Z"/>
      <path class="cls-218" d="M609.5,720.5c.2,3.3,0,6.7-.5,10-.3-.7-.7-1.3-1-2-1.8,1.2-3,2.8-3.5,5-2.2,1.1-4.5,1.8-7,2-1.3-3.6,3.1-9.2-1-11v-4h13Z"/>
      <path class="cls-130" d="M641.5,713.5h1v6h17v18c-5.3-.5-10.6-1.4-16-1,.6,6.8,0,13.1-2,19h-14c4.7-1.7,9.7-2.4,15-2-.7-13.7,1.8-27.1-1-40Z"/>
      <path class="cls-311" d="M466.5,718.5h17c-.6,6,2,13.3-3,18-4.6-.9-9.3-1.3-14-1v-17Z"/>
      <path class="cls-388" d="M485.5,718.5h61c-.2,6,1.7,11.1,1,17h-29c-2.2-.9-3.2-2.5-3-5,5-2.2,12.2-4.1,12-11-14.2.3-28.2,0-42-1Z"/>
      <path class="cls-54" d="M384.5,736.5h-13v3c-2.6-5.4-.4-13-.5-19,4.1.7,8.3,1.4,12.5,2,1,4.6,1.3,9.3,1,14Z"/>
      <path class="cls-290" d="M419.5,721.5h14v14c-1-.2-1.7.2-2,1h-13c.4-5,.7-10,1-15Z"/>
      <path class="cls-270" d="M450.5,719.5c-.6,5.2-.6,10,0,14.5,5.3.5,10.7.7,16,.5v1h-31v-14c4.1-2,8.2-2.4,12.5-1,.3-2.1,1.2-2.5,2.5-1Z"/>
      <path class="cls-15" d="M450.5,701.5c.7,4.7,1.4,9.6,2,14.5,4.3.5,8.7.7,13,.5-.2,1.3,0,2.3,1,3v15c-5.3.2-10.7,0-16-.5-1.1-10.2.5-22,0-32.5Z"/>
      <path class="cls-306" d="M417.5,682.5h2c1.4,18,.6,36-1,54h13c-3.7.5-7.9,1.5-12.5,3-2.1-4.3-12.9-1-17.5-2v-18h-32c1.3-.7,39-3.2,26-5v-3c1.6.2,3.1-.1,4.5-1,1.2-8.9.2-18,.5-27,3.9-.3,7.5,0,11,1h-10c.3,11.7.6,23.3,1,35,4.2-1,14.8,2.5,16-2.5-1-11.5-1.3-23-1-34.5Z"/>
      <path class="cls-133" d="M417.5,683.5c-.3,11.2,0,22.4,1,33.5-.5,5-10.7,0-15,1.5.2-6,.5-12,1-18,2.9.3,4.4-1.1,4.5-4,.3,1.3.7,2.7,1,4,1.2-6-2.5-14.2,5.5-16,.3-.8,1-1.2,2-1Z"/>
      <path class="cls-67" d="M411.5,684.5h4c-8,1.8-4.3,10-5.5,16-.3-1.3-.7-2.7-1-4-.1,2.9-1.6,4.3-4.5,4-.5,6-.8,12-1,18,4.5-.3,8.9,0,13,1h-14c-.4-11.7-.7-23.3-1-35h10Z"/>
      <path class="cls-168" d="M483.5,718.5c14.5.7,29.1,1.5,44,1,.2,6.9-7,8.8-12,11-.2,2.5.8,4.1,3,5h-35v-17Z"/>
      <path class="cls-356" d="M595.5,718.5v17h-33c10.5-1,21.2-1.3,32-1-.3-5.5,0-10.9,1-16Z"/>
      <path class="cls-249" d="M369.5,719.5c0,6.7-.6,14.3,2,20v15h-17c0-6.3-1.6-11.7-1-18,4.8-1,9.8-1.3,15-1-.3-5.5,0-10.9,1-16Z"/>
      <path class="cls-372" d="M483.5,731.5v4h15v17h-33v-16c-4.5-.6-10.1,1.3-14-1,9.6.3,19.5-.9,29,1,1.4-1.4,2.4-3.1,3-5Z"/>
      <path class="cls-341" d="M434.5,721.5h1v14c6.9,0,13.5-.3,20,1-.7.9-1.7,1.2-3,1v15c15.3,0,30.7,0,46,0,.7,0,1,.3,1,1h-65v-32Z"/>
      <path class="cls-109" d="M455.5,736.5h10v16h-13v-15c1.3.2,2.3,0,3-1Z"/>
      <path class="cls-191" d="M498.5,735.5h49c-3.3.6-6.7,1.6-10,3,1.9,1.4,3.6,3.1,5,5-.5.7-1.2,1.2-2,1.5,5.1.3,10.1-.2,15-1.5,0-4.6,1.9-6.6,6-6-.9,4.6-1.2,9.3-1,14-20.7-.7-41,.6-61,2,0-.7-.3-1-1-1v-17Z"/>
      <path class="cls-278" d="M661.5,738.5h28v15c-4.8.4-9.5-.1-14-1.5,1.1-.7,1.7-1.7,2-3-1.4-1.6-2.1-3.4-2-5.5-4.4-1.7-9.1-2.4-14-2v-3Z"/>
      <path class="cls-147" d="M382.5,719.5h19v18h-1c.1-.7,0-1.4-.5-2-1,1.8-1.2,3.4-.5,5-3.2,5.7-1.9,7.2,4,4.5-1.7-1.4-2.3-3.3-2-5.5h6c-5.3,10,3.6,19.6,4,30-4.1.8-3.6-3.5-5-6-.7.5-1.2,1.2-1.5,2-.5-4.3-.7-8.7-.5-13h-16c.8-10.5-1.6-20.8-3-31-1.5,0-2.5-.6-3-2Z"/>
      <path class="cls-21" d="M431.5,736.5c.4-1.3,1.9-1,3-1v18h17v1c-11,.2-22,0-33-.5-1-5.4-1.3-10.9-1-16.5.7.4,1.2,1.1,1.5,2,4.6-1.5,8.8-2.5,12.5-3Z"/>
      <path class="cls-3" d="M658.5,737.5h2c0,.7.3,1,1,1v3c4.9-.4,9.6.3,14,2,0,2.1.6,3.9,2,5.5-.3,1.3-.9,2.3-2,3,4.5,1.4,9.2,1.9,14,1.5v2c-10.1.3-19.9-2.5-30-2,.3-5.4,0-10.8-1-16Z"/>
      <path class="cls-83" d="M384.5,736.5c4-1.4,1.2,14,2,17-1,0-1.8.2-2.5,1-1.4-5-9.7-3.7-11.5.5-6,.5-12,.7-18,.5v-1h17v-18h13Z"/>
      <path class="cls-85" d="M562.5,735.5v17h-51c16.2-1,32.5-1.3,49-1,.2-5.1-.7-11.9,2-16Z"/>
      <path class="cls-48" d="M612.5,685.5c3.9.9,7.9,1.3,12,1,0,6.5,0,12.8,0,19,5.5-1.8,11.2-2.5,17-2,.7,5.7-1.9,12.7,2,17.5-1,10.8-1.3,21.6-1,32.5-5.3-.4-10.3.3-15,2-.7,3.9-1.3,7.9-2,12-.8-1.2-1.3-2.6-1.5-4-.5.9-.6,1.9-.5,3-4.5-.4-8.9,0-13,1.5,0,5.6,0,11.5,0,17.5-2.1-.2-3.8-1.2-5-3-4.2,1.8-8.2,1.8-12,0-4.4-.6-9.1,4.1-12.5,2-.3.9-.8,1.6-1.5,2v-16h-4c-1.9-4.2-7.8-3.8-11.5-3,.8-2.8,2-6,.5-9-.7.3-1.3.7-2,1-1.5-1.2-3.2-2.2-5-3,.5-.7,1.2-1.2,2-1.5-10.2-.2-20.2-.7-30-1.5h34v-15c10.4-1.9,21.1-2.6,32-2-9.8.7-19.8,1.3-30,2-.9,4.9-1.3,9.9-1,15h46v-17h-14v-12c4.1,1.8-.3,7.4,1,11,2.5-.2,4.8-.9,7-2,.5-2.2,1.7-3.8,3.5-5,.3.7.7,1.3,1,2,.5-3.3.7-6.7.5-10,1.1,0,2.1-.4,3-1v-34Z"/>
      <path class="cls-309" d="M595.5,736.5h15v17h-46c-.3-5.1,0-10.1,1-15,10.2-.7,20.2-1.3,30-2Z"/>
      <path class="cls-210" d="M612.5,719.5c5,0,10-.2,15-.5-1,5.7-1.3,11.6-1,17.5-4.6-.8-9.3-1.1-14-1v-16Z"/>
      <path class="cls-245" d="M353.5,736.5v17h-16c.7-6-1-11.3-1-17h17Z"/>
      <path class="cls-266" d="M338.5,738.5h13c.6,4.6,1,9.3,1,14h-14v-14Z"/>
      <path class="cls-294" d="M562.5,735.5h1v18h-56c17.6-2.8,36.9,0,55-1v-17Z"/>
      <path class="cls-273" d="M353.5,746.5c1,2.4,1.3,5.1,1,8-5.9.3-11.5,0-17-1h16v-7Z"/>
      <path class="cls-173" d="M386.5,737.5c1,5.1,1.3,10.5,1,16,4.9-.3,9.5,0,14,1-20.7.4-13.9,1.7-15-17Z"/>
      <path class="cls-305" d="M715.5,753.5h8v17h33c-11.2,1-22.5,1.3-34,1,.6-5.5,0-10.6-2-15.5-10.3-.5-20.7-.7-31-.5v-17h-28c-.7,0-1-.3-1-1,10.4.1,20.7-.2,31-1v17h24Z"/>
      <path class="cls-346" d="M400.5,737.5h17c-.3,5.6,0,11.1,1,16.5,16.9,1.4,53.9-1,65,1.5-22-.1-44,0-66,.5-1-5.7-1.3-11.6-1-17.5-5.5.3-10.9,0-16-1Z"/>
      <path class="cls-98" d="M400.5,737.5c5.1,1,10.5,1.3,16,1-.3,5.9,0,11.8,1,17.5,22-.4,44-.6,66-.5-.3,3.9,0,7.8,1,11.5-3.1-.1-5.4,1.1-7,3.5-22,1.1-43.5,1.8-66-1-.4-10.4-9.3-20-4-30h-6c-.3,2.2.3,4.1,2,5.5-5.9,2.7-7.2,1.2-4-4.5-.7-1.6-.5-3.2.5-5,.5.6.6,1.3.5,2Z"/>
      <path class="cls-150" d="M498.5,753.5c20.5-.5,40.4.8,61,1.5-.8.3-1.5.8-2,1.5,1.8.8,3.5,1.8,5,3,.7-.3,1.3-.7,2-1,1.5,3,.3,6.2-.5,9,3.7-.8,9.6-1.2,11.5,3-25.5.3-50.2-.8-76-1,.2-5.4-.1-10.7-1-16Z"/>
      <path class="cls-331" d="M337.5,753.5c5.5,1,11.1,1.3,17,1-.6,5.2-1.5,10.4-1,16h-31c-.6-5.6-1.4-11.2-1-17,5.3-1.2,10.6-1.2,16,0Z"/>
      <path class="cls-231" d="M387.5,754.5c20.7-.4,13.9-1.7,15,17h16v16h32v17c-1-5.1-1.3-10.5-1-16h-32c.3-5.5,0-10.9-1-16h-15v-17c-4.9.3-9.5,0-14-1Z"/>
      <path class="cls-301" d="M451.5,754.5v-1h47c.9,5.3,1.2,10.6,1,16-7.2,1.5-14.7,1-22,1,1.6-2.4,3.9-3.6,7-3.5-1-3.7-1.3-7.6-1-11.5-4.6-1.1-15.3-1.5-32-1Z"/>
      <path class="cls-369" d="M658.5,737.5c.9,5.2,1.3,10.6,1,16,5.4-.1,10.7.2,16,1-.6,22.4-.6,44.7,0,67h-34c1.2-1.6,2.8-2.4,5-2.5.7-2.6,2.4-3.7,5-3.5v-3h-4c.8-3.7-.5-6.1-4-7v-18c5.3.3,10.4,0,15.5-1,.5-5.7.7-11.3.5-17-3.3.2-6.7,0-10-.5l1-1c-.9-.5-1.9-.6-3-.5.2-1.3-.2-2.5-1-3.5-6.2,1.1-16.5-3.2-15,7.5h-3v-15c4.5.3,8.9,0,13-1,2-5.9,2.6-12.2,2-19,5.1-.2,10.1.1,15,1Z"/>
      <path class="cls-192" d="M627.5,755.5h14c-4.1,1-8.5,1.3-13,1v15h3c-1.5-10.7,8.8-6.4,15-7.5.8,1,1.2,2.2,1,3.5,1.1-.1,2.1,0,3,.5l-1,1c3.3.5,6.7.7,10,.5.2,5.7,0,11.3-.5,17-5.1,1-10.2,1.3-15.5,1v-1c-4.8.4-9.5-.1-14-1.5,4.2-1.3-.7-1.9-2-.5-2.9-.7-5.9-1.2-9-1.5,1.7-1.7,2.4-3.6,2-5.5,1.9-1.1,3.9-2,6-2.5-.5-.4-.8-.9-1-1.5-4.3-1-8.6-1.3-13-1-.4,1.8,2.2,26.9-1,16h-31v15c-.7.3-1.3.7-2,1v-17c10.7.1,21.3,0,32-.5,1-5.1,1.3-10.2,1-15.5h16v-16Z"/>
      <path class="cls-51" d="M317.5,753.5c1.8,4.9,2.8,10.3,3,16-1.7-5-2.7-10.3-3-16Z"/>
      <path class="cls-261" d="M304.5,753.5c5.7-1.3,11.3-1.3,17,0-.3,5.4,0,10.8,1,16h-2c-.2-5.7-1.2-11.1-3-16h-13Z"/>
      <path class="cls-112" d="M304.5,754.5v-1h13c.3,5.7,1.3,11,3,16h2v1h-16c-.7-5.3-1.3-10.7-2-16Z"/>
      <path class="cls-200" d="M306.5,754.5h10c.3,4.7,0,9.4-1,14-2.9.9-5.9,1.2-9,1v-15Z"/>
      <path class="cls-324" d="M304.5,754.5c1.2,11,3.2,21.9,3,33h-34v-18h31v-15Z"/>
      <path class="cls-118" d="M354.5,755.5v16c-16,.3-32.1-.9-48,1v-2h47c-.3-5.2,0-10.2,1-15Z"/>
      <path class="cls-29" d="M402.5,755.5c1,4.8,1.3,9.8,1,15,4.9-.3,9.5,0,14,1h-15v-16Z"/>
      <path class="cls-275" d="M466.5,771.5v16h-15c-.9-5.2-1.3-10.6-1-16,5.3-1.3,10.7-1.3,16,0Z"/>
      <path class="cls-373" d="M477.5,770.5h6v17h-17v-16c3.7,0,7.4-.4,11-1Z"/>
      <path class="cls-376" d="M643.5,786.5c-1-14.6.4-15.9,15-15-.8,5-1.1,10-1,15h-14Z"/>
      <path class="cls-113" d="M706.5,803.5c-5,0-10,.2-15,1v-3c2.3.4,4.1-.3,5.5-2,.8-7.1,3.6-13.2.5-20h4v-4c-1.1.1-2.1,0-3-.5,2.1-.3,4.1-.8,6-1.5,1.1,10,1.8,20,2,30Z"/>
      <path class="cls-10" d="M385.5,721.5c1.4,10.2,3.8,20.5,3,31h16c-.2,4.3,0,8.7.5,13,.3-.8.8-1.5,1.5-2,1.4,2.5.9,6.8,5,6,13.2,1.7,26.2,2.3,39,2-.3,5.4,0,10.8,1,16-10.6-.6-21.1-1.5-32-1,.3-5.2,0-10.2-1-15-4.9-.6-9.7-1.5-15-1,0-16.7,1.4-17.5-16-17-.2-5,1-13.6-2-17v-15Z"/>
      <path class="cls-140" d="M546.5,770.5h17v16h-17v-16Z"/>
      <path class="cls-144" d="M386.5,753.5c3.1,2.9,10.3,1.8,15,2v17h15v19c11.4,2.1,20.3-3.4,32-2-.3,5.6,0,11.1,1,16.5,10.3.5,20.7.7,31,.5.2,4,0,8-.5,12-1-4.6-3.8-6.9-8.5-7v4c-6.5-.3-4.5,11.5-6,16,1.8-.3,3.5,0,5,1-10.9.5-13.6,9.1-19,6v-17h-17v-17c-15.9-1.7-32,.5-48,1-.8-4.6-1.3-9.3-1.5-14-.7-.5-1.2-1.2-1.5-2-13-.7-26-1.5-39-2.5-1.2-2.7-.2-3.8,3-3.5v-10c2.6-.2,4.9-.9,7-2v-16c6,.2,12,0,18-.5,1.8-4.2,10.1-5.5,11.5-.5.7-.8,1.5-1.1,2.5-1Z"/>
      <path class="cls-35" d="M563.5,770.5h16v17h-28v-1h12v-16Z"/>
      <path class="cls-393" d="M255.5,770.5c5.5-1,11.1-1.3,17-1v17c-1-5.1-1.3-10.5-1-16h-16Z"/>
      <path class="cls-12" d="M321.5,771.5v16h-14c.2-5-.2-10-1-15,5-.7,10-1,15-1Z"/>
      <path class="cls-286" d="M771.5,771.5c.2,5.1-.1,10.1-1,15-9.8,2-20,.6-30,1v17h-18c5.5-1,11.1-1.3,17-1v-17h18c-.3-4.7,0-9.4,1-14,4.3-.9,8.6-1.3,13-1Z"/>
      <path class="cls-74" d="M255.5,771.5v-1h16c-.3,5.5,0,10.9,1,16h1v1h-17c.3-5.5,0-10.9-1-16Z"/>
      <path class="cls-272" d="M257.5,772.5h11c.2,4.3,0,8.7-.5,13-3.4,1-6.9,1.3-10.5,1v-14Z"/>
      <path class="cls-174" d="M627.5,755.5v16h-16c.3,5.3,0,10.4-1,15.5-10.3.5-20.7.7-31,.5v-1c.7-.4,1.2-1.1,1.5-2,3.4,2.1,8.1-2.6,12.5-2,3.8,1.8,7.8,1.8,12,0,1.2,1.8,2.9,2.8,5,3,0-6,0-11.9,0-17.5,4.1-1.4,8.5-1.9,13-1.5-.1-1.1,0-2.1.5-3,.2,1.4.7,2.8,1.5,4,.7-4.1,1.3-8.1,2-12Z"/>
      <path class="cls-326" d="M689.5,755.5c10.3-.2,20.7,0,31,.5,1.9,4.9,2.6,10,2,15.5,16.5,1.3,33-2.8,49,0-4.4-.3-8.7,0-13,1-1,4.6-1.3,9.3-1,14h-18v17c-5.9-.3-11.5,0-17,1,0,5,.4,10.3-1,15h-13c-.6-15.9-1.1-31.2-1.5-47-4.8-1.4-9.6-2.9-14.5-4.5-.5-4.3-1.5-8.5-3-12.5Z"/>
      <path class="cls-43" d="M499.5,769.5c15.9.1,31.6.5,47,1v16h5v1c-6.6.2-13.1.2-19.5,0-.5,1.3-.7,2.6-.5,4-1-1.4-1.3-3.1-1-5-15.7.6-31.3,1.1-47,1v-17c5.4.3,10.8,0,16-1Z"/>
      <path class="cls-224" d="M418.5,771.5c1,4.8,1.3,9.8,1,15,10.2-.3,20.2,0,30,1h-31v-16Z"/>
      <path class="cls-333" d="M255.5,771.5c2,10.3.7,21.4,1,32,3.9-.3,7.5,0,11,1h-27c.3-5.9,0-11.5-1-17,5.1-1.3,10.4-2,16-2v-14Z"/>
      <path class="cls-103" d="M451.5,787.5h47v17h33c.3-5.6-.7-11.5.5-17,15.3.3,31.1-.1,46.5,0v17c-11.1.5-21.7-1.7-33-1,.4,5.7.7,11.3,1,17h-62c-.7-5-1.3-10-2-15-10.2-.8-20.5-1.4-31-1v-17Z"/>
      <path class="cls-203" d="M770.5,786.5c3.1,3.9-3.4,9.7.5,13,2.2,6.2-2.6,16.7,1.5,20.5-4.5,1.7-9,1.8-13.5.5-5.2,3.9-12.4,1.6-18.5,1,.7-5,1-10,1-15,5.3-.4,10.1-.4,14.5,0,1.4-6.2,1.9-12.5,1.5-19,4.4.3,8.8,0,13-1Z"/>
      <path class="cls-257" d="M643.5,787.5v17h-16v-17h16Z"/>
      <path class="cls-160" d="M306.5,789.5c.2,5.4-1.7,10.3-1,16-4.9.7-12.1-3.3-16-1-5,.2-10-.2-15-1v-15c10.9-.3,21.1,2.7,32,1Z"/>
      <path class="cls-30" d="M256.5,787.5h17c-.3,22,3.8,16.5-17,16v-16Z"/>
      <path class="cls-299" d="M531.5,791.5v13h-33v-17c10.7-.3,21.3-.6,32-1-.3,1.9,0,3.6,1,5Z"/>
      <path class="cls-59" d="M643.5,786.5v1h-16v17c-15.6-1-31.3-1.3-47-1v-15h31c3.2,10.9.6-14.1,1-16,4.4-.3,8.7,0,13,1,.2.6.5,1.1,1,1.5-2.1.5-4.1,1.4-6,2.5.4,1.9-.3,3.8-2,5.5,3.1.3,6.1.8,9,1.5,1.3-1.4,6.2-.8,2,.5,4.5,1.4,9.2,1.9,14,1.5Z"/>
      <path class="cls-233" d="M273.5,787.5h33v2c-10.9,1.7-21.1-1.3-32-1v15h-1v-16Z"/>
      <path class="cls-380" d="M321.5,771.5h1v34h-17c-.3-4.2,0-8.2,1-12v11h15v-33Z"/>
      <path class="cls-208" d="M799.5,787.5h3c.3,5.5,0,10.9-1,16-1.6-.5-3.3-.9-5-1-3.7-6.2,4.2-9,3-15Z"/>
      <path class="cls-280" d="M770.5,786.5c5.9.3,11.7,1.6,18,1-1.7,10.3-.6,20.7-2,31-3.6-.4-7.1-1.1-10.5-2-4.2-9.4-3.6-20.6-5.5-30Z"/>
      <path class="cls-41" d="M322.5,771.5h32c-2.1,1.1-4.4,1.8-7,2v10c-3.2-.3-4.2.8-3,3.5,13,1,26,1.8,39,2.5.3.8.8,1.5,1.5,2,.2,4.7.7,9.4,1.5,14,16-.5,32.1-2.7,48-1v17c-1.2-6.2-3.1-14-11-14v6c-7.8,1.7-15.8,2.3-24,2v4c-3.1-.2-6.1,0-9,1-1,3.9-.7,7.7,1,11.5-.8,1.3-1.8,2.5-3,3.5-1.6-4.5-2.4-9.2-2.5-14-3.5-.6-7-1.3-10.5-2,1.8-3.1,7.2-1.3,10-3.5-1.1-2.4-1.7-4.9-2-7.5-2-.3-4-.7-6-1,0-3.2-.8-8.8,4-8,.3-2.6,0-5.1-1-7.5-7.3-3-13.5,2-21,1.5v4c-5.2.6-10.3,1-15.5,1-2.1,8.8-5.9,12.9-4.5,23h-17v-50Z"/>
      <path class="cls-220" d="M306.5,787.5h15v17h-15v-17Z"/>
      <path class="cls-56" d="M788.5,787.5h11c1.2,6-6.7,8.8-3,15,1.7.1,3.4.5,5,1v1h-14c-.3-5.8,0-11.4,1-17Z"/>
      <path class="cls-212" d="M239.5,804.5c.2,5.2.2,10.5,0,16h-15v-32h14c-.3,5.4,0,10.8,1,16Z"/>
      <path class="cls-143" d="M332.5,802.5c8.9-.2,5.3,12.4,5,18h-14c0-9.2-1.9-15.9,9-18Z"/>
      <path class="cls-382" d="M450.5,787.5h1v17c10.2-.3,20.2,0,30,1-10.5.3-20.8,0-31-1v-17Z"/>
      <path class="cls-269" d="M757.5,787.5c.4,6.5,0,12.8-1.5,19-4.4-.4-9.2-.4-14.5,0,0,5-.3,10-1,15h-1v-16c-4.9-.3-9.8,0-14.5,1-.5,5-.7,10-.5,15-.6-5.7-2.1-11.3-2-17h18v-17h17Z"/>
      <path class="cls-367" d="M239.5,804.5h33v17c-5.7,0-11.2-.9-16.5-3-5.2,1.9-10.7,2.6-16.5,2,.2-5.5.2-10.8,0-16Z"/>
      <path class="cls-243" d="M551.5,805.5h76c.3,5.6,0,11.1-1,16.5-16.3-.3-32.7-.5-49-.5-.7,4.5-1.3,9.2-2,14-.9-1.2-1.3-2.5-1-4h-5c1.5-7.4,2.5-13.3,10-17-3.7.3-7.4-.5-11-2.5,1.2-.9,1-1.7-.5-2.5-2.8,3.1-6.1,5.4-10,7-1.1,5.5-3.6,10.3-7.5,14.5-19.8.9-39.4.1-59-2.5.1-1.6-.5-2.8-2-3.5,19.7-.6,39.3-1.2,59-2,.4-5.7.4-11.6,0-17.5h3Z"/>
      <path class="cls-47" d="M643.5,805.5c3.5.9,4.8,3.3,4,7h4v3c-2.6-.2-4.3.9-5,3.5-8.9.6-3.7,12.6-5,18.5-5.3.3-10.4,0-15.5-1,1.5-10.2,2.4-20.6,2.5-31h15Z"/>
      <path class="cls-194" d="M739.5,821.5h-15c-.2-5,0-10,.5-15,4.7-1,9.6-1.3,14.5-1v16Z"/>
      <path class="cls-197" d="M273.5,803.5c5.3.5,10.6,1.3,16,1v18c-5.9.3-11.5,0-17-1v-17c.7,0,1-.3,1-1Z"/>
      <path class="cls-7" d="M787.5,805.5v-1c5-.7,9,1.3,14,1-.3,4.9,0,9.8,1,14.5-4.7.5-9.3.7-14,.5.3-5.2,0-10.2-1-15Z"/>
      <path class="cls-391" d="M305.5,805.5c.3,11,.9,22,1,33h9c-2.6,1.6-6,.9-9,1-1.1,4.6-1.1,9.3,0,14h-18c-.6-6,9.1-3.1,10-12.5-3.3-.2-6.3-1-9-2.5h16v-17c-5.4.3-10.8,0-16-1,.5-20.2-4.3-17.2,16-15Z"/>
      <path class="cls-205" d="M706.5,803.5h1v18c-5.4.3-10.7,0-16-1-1.3-5.5-1.3-10.8,0-16,5-.8,10-1.1,15-1Z"/>
      <path class="cls-79" d="M675.5,754.5c4.6.7,9.3,1.1,14,1,1.5,4,2.5,8.2,3,12.5,4.9,1.6,9.7,3.1,14.5,4.5.5,10.3.7,20.7.5,31h-1c-.2-10-.9-20-2-30-1.9.7-3.9,1.2-6,1.5.9.5,1.9.6,3,.5v4h-4c3.1,6.8.3,12.9-.5,20-1.4,1.7-3.2,2.4-5.5,2-.2,6.4-2,12.4,0,19,5.3,1,10.6,1.3,16,1v-17c1,4.8,1.3,9.8,1,15h13c-3.7.5-7.4,1.5-11,3-1,4.3-1.3,8.6-1,13,1.4-.2,2.7,0,4,.5-7.7,3.7-23.6-3.2-23.5,8.5-1-.8-2.2-1.2-3.5-1v4c-3.3.2-6.7,0-10-.5-2.6-30.5-1.1-61.7-1-92.5Z"/>
      <path class="cls-351" d="M305.5,805.5h16v32c-5.2.4-10.2-.2-15-2-.3-10-.7-20-1-30Z"/>
      <path class="cls-228" d="M222.5,788.5c5.5-1,11.1-1.3,17-1,1,5.5,1.3,11.1,1,17h-1c-.9-5.2-1.3-10.6-1-16h-14v32c10.4-.5,21.7,1.8,31.5-2,10.7,3.7,22.1,4,33.5,4v15c-1.4-4.1-2.1-8.4-2-13-21.5-1.4-42.5-2.5-64-3,.3-11.2,0-22.2-1-33Z"/>
      <path class="cls-11" d="M567.5,804.5h-20v17c-21.2.3-42.2,0-63-1h62c-.3-5.7-.6-11.3-1-17,7.5-.3,14.9,0,22,1Z"/>
      <path class="cls-347" d="M771.5,788.5c-.6,9.1,1.4,19.2,4.5,28,3.4.9,6.9,1.6,10.5,2-.3-2.6,0-4.9,1-7v9c-22.2,3.3-15.7-5.1-16,18-5.7-.2-11.3,0-17,.5,1,5.1,1.3,10.2,1,15.5h-29c-.8-1.5-1.1-3.2-1-5,3.4-.2,6.7-.7,10-1.5.8-2.4,1.3-4.9,1.5-7.5.2,2.1.7,4.1,1.5,6,.7-8.4,1.4-16.7,2-25,6.1.6,13.3,2.9,18.5-1,4.5,1.3,9,1.2,13.5-.5-4.1-3.7.7-14.4-1.5-20.5-3.2-2.6.6-7.5.5-11Z"/>
      <path class="cls-392" d="M794.5,804.5h7c1.1,5.8,1.7,11.8,2,18-6.6-.8-13.3-1.2-20-1,1.1-.9,2.4-1.3,4-1v-15c1,4.8,1.3,9.8,1,15,4.7.2,9.3,0,14-.5-1-4.7-1.3-9.6-1-14.5-2.6.3-4.9,0-7-1Z"/>
      <path class="cls-151" d="M642.5,821.5h33v17h-18v1h-15v4c-.9-1.1-1.3-2.4-1-4h-3c1.1-.9,2.4-1.3,4-1v-17Z"/>
      <path class="cls-44" d="M323.5,821.5c20-.1,39.9.8,60,.5,4.2,8.9,1.1,21.4,2,31.5h-2c-1-1.3-.8-2.6.5-4,.7-8.3.7-16.7,0-25-6.8-4.7-16.7.3-24.5,0-.7,2.1-.7,4.1,0,6,2.6.9,5.3,1.2,8,1,1.5,11.5-34.8,5.8-43,6.5-1-5.4-1.3-10.9-1-16.5Z"/>
      <path class="cls-101" d="M657.5,838.5h-13v-16h30v15c-5.9-.3-11.5,0-17,1Z"/>
      <path class="cls-238" d="M722.5,807.5c.7,4.7,1.3,9.3,2,14h16c-.6,8.3-1.3,16.6-2,25-.8-1.9-1.3-3.9-1.5-6-.2,2.6-.7,5.1-1.5,7.5-3.3.8-6.6,1.3-10,1.5-.1,1.8.2,3.5,1,5h-3v-17c-5.2-.9-10.5-.9-16,0,1.8-.8,3.8-1.3,6-1.5-1.3-.5-2.6-.7-4-.5-.3-4.4,0-8.7,1-13,3.6-1.5,7.3-2.5,11-3,1-3.8,1.3-7.8,1-12Z"/>
      <path class="cls-58" d="M434.5,821.5h17v16h-1v-14c-5-1.3-10-1.3-15,0-4.1-1.9-6.9-5.2-12-4v-4c-8,1.1-15.8,2.7-23.5,5,1.9,9,4.4,18,7.5,27h4c-.2,1.6.1,3.1,1,4.5-9,1.3-18,1.8-27,1.5.4-46,4.1-27.6-46-32-1.4-10,2.4-14.2,4.5-23,5.2,0,10.3-.4,15.5-1v-4c7.5.5,13.7-4.5,21-1.5.9,2.4,1.3,4.9,1,7.5-4.8-.8-4,4.8-4,8,2,.3,4,.7,6,1,.3,2.6.9,5.1,2,7.5-2.8,2.2-8.2.4-10,3.5,3.5.7,7,1.4,10.5,2,.1,4.8.9,9.5,2.5,14,1.2-1,2.2-2.2,3-3.5-1.7-3.8-2-7.6-1-11.5,2.9-.9,5.9-1.2,9-1v-4c8.2.3,16.2-.3,24-2v-6c7.9,0,9.8,7.8,11,14Z"/>
      <path class="cls-363" d="M322.5,821.5h1c-.3,5.6,0,11.1,1,16.5,8.1-.7,44.4,5.1,43-6.5-2.7.2-5.4-.1-8-1-.7-1.9-.7-3.9,0-6,7.8.2,17.7-4.7,24.5,0,.7,8.3.7,16.7,0,25-1.3,1.4-1.5,2.7-.5,4-6.9.5-13-1.2-20-1.5,6.3-.6,12.7-1.1,19-1.5,1-6.3,1.2-12.6.5-19l-3,9c-19.1-1-38.3-1.3-57.5-1v-18Z"/>
      <path class="cls-365" d="M580.5,803.5c21.1-.7,42,1.3,63,1v1h-15c-.1,10.4-1,20.8-2.5,31,5.1,1,10.2,1.3,15.5,1v-16h1v17c-20.8,2.4-42.5.3-64,1v-18c16,0,32,.2,48,.5,1-5.4,1.3-10.9,1-16.5h-76v-1c9.5-.7,19.9,1.5,29-1Z"/>
      <path class="cls-352" d="M579.5,822.5c9.3-.2,18.7,0,28,.5,3.4,3.5,1.6,9.9,2,14.5h-30v-15Z"/>
      <path class="cls-307" d="M256.5,822.5c10.3.7,20.6,1.4,31,2-.3,5,1.2,9.4,2,14,2.7,1.5,5.7,2.3,9,2.5-.9,9.5-10.6,6.5-10,12.5h18v1c-10.7-.2-21.4.1-32,1v-18h-18v-15Z"/>
      <path class="cls-69" d="M450.5,837.5c.2,4,0,8-.5,12-4.5-.5-9,.2-13.5,2,68.5,3.6,137.4,1.5,206,2v1c-85.7.3-171.3.3-257,0v-1c9,.3,18-.2,27-1.5-.9-1.4-1.2-2.9-1-4.5h-4c-3.1-9-5.6-18-7.5-27,7.7-2.3,15.5-3.9,23.5-5v4c5.1-1.2,7.9,2.1,12,4,5-1.3,10-1.3,15,0v14Z"/>
      <path class="cls-207" d="M416.5,772.5c1,5.1,1.3,10.5,1,16h32c-.3,5.5,0,10.9,1,16,10.5,1.1,21.2,1.3,32,1v17c21.8.3,43.5,0,65-1v-17h4v1h-3c.4,5.9.4,11.8,0,17.5-19.7.8-39.3,1.4-59,2,1.5.7,2.1,1.9,2,3.5,19.6,2.6,39.2,3.4,59,2.5,3.9-4.2,6.4-9,7.5-14.5,3.9-1.6,7.2-3.9,10-7,1.5.8,1.7,1.6.5,2.5,3.6,2,7.3,2.8,11,2.5-7.5,3.7-8.5,9.6-10,17h5c-.3,1.5,0,2.8,1,4,.7-4.8,1.3-9.5,2-14v19c8.4-.3,16.7,0,25,1,.2.6.5,1.1,1,1.5-2.6.5-5.3.7-8,.5,0,1.6.6,3,2,4-2,1-2.4,2.3-1,4-34.9,1-69.9,1.2-105,.5,19.5-.4,38.8-2.2,58-5.5,1.1-2.1,2.1-4.3,3-6.5,5-.5,10-.7,15-.5v-4c-7.6,1.1-15.3,1.9-23,2.5-2.4,7.6-12,.8-17,0-12.6-1-25.1-3.2-37.5-6.5-8.6,3-17.4,5.2-26.5,6.5-3.3,3.4-7.1,4.6-11.5,3.5-.5-.9-.6-1.9-.5-3,5.3,3.1,8.1-5.5,19-6-1.5-1-3.2-1.3-5-1,1.5-4.5-.5-16.3,6-16v-4c4.7.1,7.5,2.4,8.5,7,.5-4,.7-8,.5-12-10.3.2-20.7,0-31-.5-1-5.4-1.3-10.9-1-16.5-11.7-1.4-20.5,4.1-32,2v-19Z"/>
      <path class="cls-6" d="M482.5,805.5c.7,5,1.3,10,2,15,20.8,1,41.8,1.3,63,1-21.5,1-43.2,1.3-65,1v-17Z"/>
      <path class="cls-136" d="M289.5,820.5c5.2.9,10.6,1.3,16,1v17h-16v-18Z"/>
      <path class="cls-379" d="M240.5,822.5h16v15c-5.4,0-10.7.4-16,1v-16Z"/>
      <path class="cls-20" d="M577.5,821.5h1v18c16.1,0,32.1,0,48,0v14c-63.3-.4-126.8,1.4-190-2,4.5-1.8,9-2.5,13.5-2,.5-4,.7-8,.5-12h1c0,1.4-.2,2.7.5,4,4.4,1.1,8.2,0,11.5-3.5,9.1-1.3,17.9-3.5,26.5-6.5,12.4,3.3,24.9,5.5,37.5,6.5,5,.8,14.5,7.6,17,0,7.7-.6,15.4-1.4,23-2.5v4c-5-.2-10,0-15,.5-.9,2.2-1.9,4.4-3,6.5-19.2,3.3-38.5,5.1-58,5.5,35.1.7,70.1.5,105-.5-1.4-1.7-1-3,1-4-1.4-1-2-2.4-2-4,2.7.2,5.4,0,8-.5-.5-.4-.8-.9-1-1.5-8.3-1-16.6-1.3-25-1v-19Z"/>
      <path class="cls-2" d="M256.5,838.5v-1h18v18h-1v-17h-17Z"/>
      <path class="cls-364" d="M657.5,838.5h18v1c-5.3-.2-10.7,0-16,.5-2.4,4.5,1.4,9.6,1,14.5h-18v-1h15v-15Z"/>
      <path class="cls-138" d="M309.5,839.5c3.5,1,7.1,1.3,11,1v13h-14c-1.1-4.7-1.1-9.4,0-14h3Z"/>
      <path class="cls-226" d="M723.5,837.5c-10.4,1.1-20.7.3-31,2.5-1.4,4.7-2.1,9.5-2,14.5h-30c.4-4.9-3.4-10-1-14.5,5.3-.5,10.7-.7,16-.5-.3,2.6,0,5.1,1,7.5,3.3.5,6.7.7,10,.5v-4c1.3-.2,2.5.2,3.5,1-.4-9.8,11-6.5,17.5-7,5.5-.9,10.8-.9,16,0Z"/>
      <path class="cls-102" d="M715.5,838.5c2.4-1,5.1-1.3,8-1v17h26c-36.7,1.3-73.3,1.3-110,0h51c-.1-5,.6-9.8,2-14.5,6.2-1.4,12.6-1.9,19-1.5-4.7,2-11.5,4.6-10,11-13.9,3.1,18.5,4.9,21,4v-15h-7Z"/>
      <path class="cls-198" d="M711.5,838.5h11v15c-2.4.9-34.9-.9-21-4-1.5-6.4,5.3-9,10-11Z"/>
      <path class="cls-125" d="M657.5,839.5v14h-15v-14h15Z"/>
      <path class="cls-327" d="M626.5,839.5h15c.7,4.7,1.4,9,1,14h-16v-14Z"/>
      <path class="cls-31" d="M315.5,838.5h6c-.5,5.9.4,11.4,1,17-5.4.3-10.8,0-16-1v-1h14v-13c-3.9.3-7.5,0-11-1,2.2.3,4.2,0,6-1Z"/>
      <path class="cls-263" d="M321.5,805.5h1v34c19.2-.3,38.4,0,57.5,1l3-9c.7,6.4.5,12.7-.5,19-6.3.4-12.7.9-19,1.5,4.2.2,8.2.7,12,1.5-17.7-.3-35.4,0-53,1-1-5.1-1.3-10.5-1-16h-15v-3c4.8,1.8,9.8,2.4,15,2v-32Z"/>
      <path class="cls-49" d="M375.5,853.5h10v1c-21,.2-42,.5-63,1v-1c17.6-1,35.3-1.3,53-1Z"/>
      <path class="cls-322" d="M772.5,821.5v18h-16v17c-160.8-1-322.9,1.9-483-1,160.5-2.7,321.4,1,482-1,.3-5.3,0-10.4-1-15.5,5.7-.5,11.3-.7,17-.5,1.4-3.5-3.1-17.8,1-17Z"/>
    </g>
  </g>
</svg>