<?xml version="1.0" encoding="UTF-8"?>
<svg id="Layer_1" data-name="Layer 1" xmlns="http://www.w3.org/2000/svg" viewBox="0 0 115 30">
  <defs>
    <style>
      .cls-1 {
        fill: #101827;
      }

      .cls-2 {
        fill: #fff;
      }
    </style>
  </defs>
  <rect class="cls-2" width="115" height="30"/>
  <g>
    <path class="cls-1" d="M13.67,12.89c-.21-1-1.02-1.42-2.34-1.42-.94,0-1.68.38-1.68,1s.66,1.02,1.49,1.23l1.25.3c2.25.53,4.04,1.15,4.04,3.42,0,2.42-2.21,3.78-4.76,3.78-2.72,0-4.66-1.51-4.93-4.12h2.7c.13,1.17.96,1.87,2.36,1.87,1.15,0,1.85-.4,1.85-1.17s-.81-1.11-1.76-1.34l-1.36-.32c-2.08-.49-3.51-1.42-3.51-3.44,0-2.21,2-3.44,4.48-3.44,2.1,0,4.4,1.04,4.8,3.66h-2.64Z"/>
    <path class="cls-1" d="M29.03,13.62h-2.89c-.17-1.21-.74-2.12-2.1-2.12s-2.21,1.17-2.21,3.74.85,3.72,2.21,3.72c.94,0,1.89-.47,2.17-2.21h2.93c-.4,3.1-2.85,4.46-5.14,4.46-3.34,0-5.23-2.51-5.23-5.97s1.93-5.99,5.29-5.99c2.23,0,4.63,1.34,4.97,4.38Z"/>
    <path class="cls-1" d="M36.36,21.21c-2.81,0-5.46-1.62-5.46-5.99s2.66-5.97,5.46-5.97,5.46,1.59,5.46,5.97-2.68,5.99-5.46,5.99ZM36.36,11.49c-1.47,0-2.4,1.08-2.4,3.72s.94,3.74,2.4,3.74,2.4-1.11,2.4-3.74-.94-3.72-2.4-3.72Z"/>
    <path class="cls-1" d="M46.01,6.43h3.06v3.06h4.46v2.32h-4.46v5.53c0,1.08.36,1.3,1.25,1.3h3.17v2.3h-4.29c-2.49,0-3.19-.83-3.19-3.1v-6.02h-3.32v-2.32h3.32v-3.06Z"/>
    <path class="cls-1" d="M56.67,6.43h3.06v3.06h4.46v2.32h-4.46v5.53c0,1.08.36,1.3,1.25,1.3h3.17v2.3h-4.29c-2.49,0-3.19-.83-3.19-3.1v-6.02h-3.32v-2.32h3.32v-3.06Z"/>
    <path class="cls-1" d="M73.4,20.55c-1.36,3.51-1.83,4.1-4.48,4.1h-2.44v-2.27h2.25c.87,0,1.08-.19,1.51-1.17l.11-.28-4.4-11.44h3.17l2.78,7.8,2.68-7.8h3.02l-4.19,11.05Z"/>
  </g>
</svg>