<?xml version="1.0" encoding="UTF-8"?>
<svg id="Layer_1" data-name="Layer 1" xmlns="http://www.w3.org/2000/svg" viewBox="0 0 91.67 28.84">
  <defs>
    <style>
      .cls-1 {
        fill: #231f20;
      }
    </style>
  </defs>
  <path class="cls-1" d="M11.05,12.78c-.26-1.24-1.27-1.77-2.9-1.77-1.16,0-2.08.47-2.08,1.24s.82,1.27,1.85,1.53l1.56.37c2.79.66,5.01,1.42,5.01,4.25,0,3.01-2.74,4.69-5.91,4.69-3.38,0-5.77-1.87-6.12-5.12h3.35c.16,1.45,1.19,2.32,2.93,2.32,1.42,0,2.29-.5,2.29-1.45s-1-1.37-2.19-1.66l-1.69-.4c-2.58-.61-4.35-1.77-4.35-4.27,0-2.74,2.48-4.27,5.56-4.27,2.61,0,5.46,1.29,5.96,4.54h-3.27Z"/>
  <path class="cls-1" d="M30.11,13.67h-3.59c-.21-1.5-.92-2.64-2.61-2.64s-2.74,1.45-2.74,4.64,1.05,4.61,2.74,4.61c1.16,0,2.35-.58,2.69-2.74h3.64c-.5,3.85-3.53,5.54-6.38,5.54-4.14,0-6.49-3.11-6.49-7.41s2.4-7.44,6.57-7.44c2.77,0,5.75,1.66,6.17,5.43Z"/>
  <path class="cls-1" d="M39.21,23.09c-3.48,0-6.78-2-6.78-7.44s3.3-7.41,6.78-7.41,6.78,1.98,6.78,7.41-3.32,7.44-6.78,7.44ZM39.21,11.04c-1.82,0-2.98,1.34-2.98,4.61s1.16,4.64,2.98,4.64,2.98-1.37,2.98-4.64-1.16-4.61-2.98-4.61Z"/>
  <path class="cls-1" d="M51.19,4.76h3.8v3.8h5.54v2.87h-5.54v6.86c0,1.34.45,1.61,1.55,1.61h3.93v2.85h-5.33c-3.09,0-3.96-1.03-3.96-3.85v-7.46h-4.11v-2.87h4.11v-3.8Z"/>
  <path class="cls-1" d="M64.42,4.76h3.8v3.8h5.54v2.87h-5.54v6.86c0,1.34.45,1.61,1.56,1.61h3.93v2.85h-5.33c-3.08,0-3.96-1.03-3.96-3.85v-7.46h-4.11v-2.87h4.11v-3.8Z"/>
  <path class="cls-1" d="M85.18,22.27c-1.69,4.35-2.27,5.09-5.56,5.09h-3.03v-2.82h2.79c1.08,0,1.34-.24,1.87-1.45l.13-.34-5.46-14.19h3.93l3.45,9.68,3.32-9.68h3.74l-5.19,13.71Z"/>
</svg>