<svg fill="none" viewBox="24 24 324 80" xmlns="http://www.w3.org/2000/svg"><g fill="#ffffff"><path d="m42 44h18v20h-18z"/><path d="m60 44h18v20h-18z"/><path d="m42 64h18v20h-18z"/><path d="m24 64h18v20h-18z"/><path d="m87 44h18v20h-18z"/><path d="m105 44h18v20h-18z"/><path d="m87 64h18v20h-18z"/><path d="m132 44h18v20h-18z"/><path d="m150 44h18v20h-18z"/><path d="m132 64h18v20h-18z"/><path d="m150 64h18v20h-18z"/><path d="m177 44h18v20h-18z"/><path d="m195 24h18v20h-18z"/><path d="m195 44h18v20h-18z"/><path d="m195 64h18v20h-18z"/><path d="m213 64h18v20h-18z"/><path d="m231 44h18v20h-18z"/><path d="m249 24h18v20h-18z"/><path d="m249 44h18v20h-18z"/><path d="m249 64h18v20h-18z"/><path d="m267 64h18v20h-18z"/><path d="m294 44h18v20h-18z"/><path d="m294 64h18v20h-18z"/><path d="m312 64h18v20h-18z"/><path d="m330 44h18v20h-18z"/><path d="m330 64h18v20h-18z"/><path d="m330 84h18v20h-18z"/><path d="m312 84h18v20h-18z"/></g></svg>
